<?xml version="1.0" encoding="iso-8859-1"?>
<!-- Generator: Adobe Illustrator 19.0.0, SVG Export Plug-In . SVG Version: 6.00 Build 0)  -->
<svg version="1.1" id="Capa_1" xmlns="http://www.w3.org/2000/svg" xmlns:xlink="http://www.w3.org/1999/xlink" x="0px" y="0px"
	 viewBox="0 0 512 512" style="enable-background:new 0 0 512 512;" xml:space="preserve">
<path style="fill:#F26666;" d="M270.407,253.857l-117.72-34.189c-25.553-7.421-40.251-34.152-32.83-59.704l34.189-117.72
	c7.421-25.553,34.152-40.251,59.704-32.83l117.72,34.189c25.553,7.421,40.251,34.152,32.83,59.704l-34.189,117.72
	C322.69,246.58,295.96,261.278,270.407,253.857z"/>
<path style="fill:#DD5B5B;" d="M331.47,43.603l-42.892-12.457c21.584,9.758,33.276,34.143,26.478,57.552l-34.333,118.216
	c-6.855,23.605-30.12,37.971-53.778,34.322l43.462,12.622c25.553,7.421,52.283-7.277,59.704-32.83l34.189-117.72
	C371.721,77.755,357.022,51.024,331.47,43.603z"/>
<path style="fill:#73E7E6;" d="M210.594,484.299L89.583,503.874c-26.267,4.249-51.005-13.6-55.254-39.867L14.755,342.995
	c-4.249-26.267,13.6-51.005,39.867-55.254l121.011-19.574c26.267-4.249,51.005,13.6,55.254,39.867l19.574,121.011
	C254.71,455.313,236.861,480.051,210.594,484.299z"/>
<path style="fill:#65D1CB;" d="M250.461,429.046l-19.574-121.011c-4.249-26.267-28.987-44.116-55.254-39.867l-45.213,7.313
	c24.185-0.873,45.801,16.369,49.765,40.877l19.783,122.301c3.54,21.883-8.104,42.704-27.171,51.754l37.797-6.114
	C236.861,480.051,254.71,455.313,250.461,429.046z"/>
<path style="fill:#FF9F40;" d="M449.69,491.282H327.105c-26.608,0-48.179-21.57-48.179-48.179V320.518
	c0-26.608,21.57-48.179,48.179-48.179H449.69c26.608,0,48.179,21.57,48.179,48.179v122.584
	C497.868,469.711,476.298,491.282,449.69,491.282z"/>
<path style="fill:#F49138;" d="M449.69,272.34h-39.255c21.481,5.099,37.465,24.394,37.465,47.434v124.074
	c0,23.04-15.984,42.335-37.465,47.434h39.255c26.608,0,48.179-21.57,48.179-48.179V320.519
	C497.868,293.91,476.298,272.34,449.69,272.34z"/>
<path d="M253.107,185.559c4.267,1.514,10.993,0.744,12.335-3.036c0.13-0.366,0.138-0.775,0.189-1.306l3.686-85.048
	c0.201-4.047-3.705-7.355-8.338-9c-4.512-1.601-9.629-1.495-12.024,1.773l-50.753,68.345c-0.295,0.444-0.59,0.889-0.677,1.133
	c-1.385,3.901,3.394,8.618,7.662,10.133c2.683,0.952,5.058,0.834,6.49-1.266l10.389-14.573l27.923,9.91l-1.122,17.862
	C248.654,183.018,250.424,184.607,253.107,185.559z M229.772,141.444l23.893-33.668l-2.677,41.198L229.772,141.444z"/>
<path d="M155.894,357.696c-4.667-17.77-17.923-18.837-30.938-15.418l-24.152,6.343c-3.629,0.953-6.673,3.625-5.785,7.005
	l21.364,81.341c0.69,2.628,4.068,4.282,8.448,3.132l26.53-6.968c14.141-3.714,23.188-13.581,18.06-33.104l-0.69-2.628
	c-3.287-12.514-9.825-16.014-18.247-17.012C156.36,375.767,158.59,367.958,155.894,357.696z M119.149,381.795l-5.588-21.274
	l13.89-3.648c6.382-1.676,11.188,1.343,12.898,7.85c1.676,6.382-0.427,11.617-7.185,13.392L119.149,381.795z M152.265,400.922
	l0.526,2.002c2.498,9.511-0.922,14.823-8.556,16.828l-14.14,3.714l-7.592-28.907l14.141-3.714
	C144.276,388.84,149.701,391.161,152.265,400.922z"/>
<path d="M392.781,347.991c12.292,0,13.197,8.799,13.456,12.81c0.129,3.881,3.623,5.304,8.41,5.304c5.693,0,8.41-1.553,8.41-8.281
	c0-15.009-12.809-24.583-30.794-24.583c-16.302,0-29.888,8.022-29.888,29.63v36.098c0,21.608,13.456,29.629,29.759,29.629
	c18.114,0,30.923-9.962,30.923-25.618c0-6.598-2.717-8.281-8.54-8.281c-4.399,0-8.022,1.294-8.281,5.305
	c-0.388,5.434-1.423,13.844-13.197,13.844c-8.927,0-13.844-4.788-13.844-14.88V362.87
	C379.196,352.779,384.113,347.991,392.781,347.991z"/>
<path d="M337.309,223.118l34.189-117.72c8.561-29.48-8.457-60.43-37.938-68.992L215.84,2.217
	c-29.482-8.568-60.43,8.456-68.992,37.937L135.75,78.366c-1.155,3.975,1.132,8.133,5.107,9.288c3.974,1.156,8.134-1.131,9.288-5.107
	l11.099-38.212c3.031-10.435,9.944-19.066,19.466-24.302s20.513-6.452,30.95-3.421L329.379,50.8
	c21.543,6.258,33.979,28.874,27.723,50.417l-34.189,117.72c-6.257,21.542-28.875,33.979-50.417,27.723l-117.72-34.189
	c-10.436-3.031-19.067-9.945-24.303-19.467c-5.236-9.522-6.451-20.514-3.42-30.949l13.214-45.497
	c1.154-3.975-1.133-8.133-5.107-9.288c-3.972-1.154-8.133,1.132-9.288,5.107l-13.213,45.497c-4.148,14.281-2.486,29.322,4.68,42.353
	c7.165,13.031,18.977,22.491,33.257,26.639l117.72,34.189c5.166,1.501,10.376,2.215,15.504,2.215
	C307.955,263.269,330.247,247.432,337.309,223.118z"/>
<path d="M238.286,306.838c-2.374-14.681-10.324-27.557-22.384-36.258c-12.06-8.702-26.788-12.187-41.466-9.811L53.425,280.343
	c-30.305,4.902-50.971,33.544-46.069,63.848l6.524,40.336c0.661,4.086,4.513,6.872,8.596,6.202c4.086-0.661,6.863-4.509,6.202-8.595
	l-6.524-40.336c-3.582-22.145,11.52-43.076,33.666-46.658l121.011-19.574c10.725-1.733,21.488,0.811,30.302,7.17
	c8.813,6.358,14.621,15.768,16.356,26.495l19.574,121.011c3.582,22.145-11.52,43.077-33.666,46.659L88.386,496.475
	c-10.728,1.731-21.489-0.811-30.302-7.17c-8.812-6.358-14.621-15.768-16.356-26.495l-7.461-46.128
	c-0.661-4.086-4.512-6.871-8.596-6.202c-4.086,0.661-6.863,4.509-6.202,8.595l7.461,46.128
	c2.374,14.681,10.324,27.557,22.383,36.258C58.902,508.379,70.175,512,81.771,512c2.989,0,6-0.241,9.009-0.728l121.011-19.574
	c30.305-4.902,50.971-33.545,46.069-63.849L238.286,306.838z"/>
<path d="M449.69,264.845H327.105c-30.699,0-55.674,24.975-55.674,55.673v40.906c0,4.14,3.356,7.495,7.495,7.495
	s7.495-3.355,7.495-7.495v-40.906c0-22.432,18.251-40.683,40.684-40.683H449.69c22.433,0,40.684,18.251,40.684,40.683v122.584
	c0,22.433-18.251,40.684-40.684,40.684H327.105c-22.433,0-40.684-18.251-40.684-40.684v-46.701c0-4.14-3.356-7.495-7.495-7.495
	s-7.495,3.355-7.495,7.495v46.701c0,30.698,24.975,55.674,55.674,55.674H449.69c30.699,0,55.674-24.976,55.674-55.674V320.518
	C505.364,289.82,480.389,264.845,449.69,264.845z"/>
<g>
</g>
<g>
</g>
<g>
</g>
<g>
</g>
<g>
</g>
<g>
</g>
<g>
</g>
<g>
</g>
<g>
</g>
<g>
</g>
<g>
</g>
<g>
</g>
<g>
</g>
<g>
</g>
<g>
</g>
</svg>
