<?xml version="1.0" standalone="no"?>
<svg xmlns="http://www.w3.org/2000/svg" version="1.1" xmlns:xlink="http://www.w3.org/1999/xlink" width="512" height="512" x="0" y="0" viewBox="0 0 682.667 682.667" style="enable-background:new 0 0 512 512" xml:space="preserve" class=""><g><defs><clipPath id="a" clipPathUnits="userSpaceOnUse"><path d="M0 512h512V0H0Z" fill="#000000" opacity="1" data-original="#000000" class=""/></clipPath></defs><g clip-path="url(#a)" transform="matrix(1.33333 0 0 -1.33333 0 682.667)"><path d="M0 0h-137.675c-23.671 0-42.86 19.188-42.86 42.86 0 23.671 19.189 42.86 42.86 42.86H0c23.671 0 42.86-19.189 42.86-42.86C42.86 19.188 23.671 0 0 0" style="fill-opacity:1;fill-rule:nonzero;stroke:none" transform="translate(324.837 7.5)" fill="#fbf7f7" data-original="#fbf7f7" class=""/><path d="M0 0h-23.919c23.671 0 42.86-19.188 42.86-42.859 0-23.672-19.189-42.861-42.86-42.861H0c23.671 0 42.86 19.189 42.86 42.861C42.86-19.188 23.671 0 0 0" style="fill-opacity:1;fill-rule:nonzero;stroke:none" transform="translate(324.837 93.22)" fill="#f7ebe7" data-original="#f7ebe7"/><path d="M0 0h45.993c23.671 0 42.861 19.188 42.861 42.86 0 23.671-19.19 42.86-42.861 42.86H-91.682c-23.671 0-42.86-19.189-42.86-42.86 0-23.672 19.189-42.86 42.86-42.86H-29" style="stroke-width:15;stroke-linecap:round;stroke-linejoin:round;stroke-miterlimit:10;stroke-dasharray:none;stroke-opacity:1" transform="translate(278.844 7.5)" fill="none" stroke="#000000" stroke-width="15" stroke-linecap="round" stroke-linejoin="round" stroke-miterlimit="10" stroke-dasharray="none" stroke-opacity="" data-original="#000000" opacity="1" class=""/><path d="M0 0c0 105.364-84.62 190.964-189.606 192.548C-296.005 194.152-384.894 106.865-385.14.455c-.215-93.466 66.161-171.458 154.344-189.219a12.945 12.945 0 0 0 8.44-5.84l18.801-30.216c5.064-8.137 16.907-8.137 21.969 0l18.802 30.215a12.961 12.961 0 0 0 8.457 5.844C-66.296-171.022 0-93.258 0 0" style="fill-opacity:1;fill-rule:nonzero;stroke:none" transform="translate(448.57 311.93)" fill="#ffd100" data-original="#ff5cab" class="" opacity="1"/><path d="M0 0a191.243 191.243 0 0 1-15.066-.37C85.546-6.724 165.185-90.333 165.185-192.548c0-93.258-66.296-171.022-154.328-188.761a12.963 12.963 0 0 1-8.457-5.844l-17.575-28.243 1.227-1.972c5.063-8.137 16.906-8.137 21.969 0l18.801 30.215a12.963 12.963 0 0 0 8.457 5.844c88.032 17.739 154.327 95.503 154.327 188.761C189.606-87.184 104.986-1.584 0 0" style="fill-opacity:1;fill-rule:nonzero;stroke:none" transform="translate(258.964 504.478)" fill="#ff9e00" data-original="#ff3b9b" class="" opacity="1"/><path d="M0 0c0-89.831-72.822-162.654-162.654-162.654-89.831 0-162.654 72.823-162.654 162.654s72.823 162.654 162.654 162.654C-72.822 162.654 0 89.831 0 0" style="fill-opacity:1;fill-rule:nonzero;stroke:none" transform="translate(418.654 311.93)" fill="#fbf7f7" data-original="#fbf7f7" class=""/><path d="M0 0c-4.319 0-8.6-.173-12.835-.503 83.832-6.545 149.819-76.641 149.819-162.151 0-85.512-65.987-155.608-149.819-162.152 4.235-.331 8.516-.503 12.835-.503 89.832 0 162.654 72.824 162.654 162.655S89.832 0 0 0" style="fill-opacity:1;fill-rule:nonzero;stroke:none" transform="translate(256 474.584)" fill="#f7ebe7" data-original="#f7ebe7"/><path d="M0 0v-5.396" style="stroke-width:15;stroke-linecap:round;stroke-linejoin:round;stroke-miterlimit:10;stroke-dasharray:none;stroke-opacity:1" transform="translate(256 121.585)" fill="none" stroke="#000000" stroke-width="15" stroke-linecap="round" stroke-linejoin="round" stroke-miterlimit="10" stroke-dasharray="none" stroke-opacity="" data-original="#000000" opacity="1" class=""/><path d="M0 0h53.241" style="stroke-width:15;stroke-linecap:round;stroke-linejoin:round;stroke-miterlimit:10;stroke-dasharray:none;stroke-opacity:1" transform="translate(186.361 64.069)" fill="none" stroke="#000000" stroke-width="15" stroke-linecap="round" stroke-linejoin="round" stroke-miterlimit="10" stroke-dasharray="none" stroke-opacity="" data-original="#000000" opacity="1" class=""/><path d="M0 0h61.295" style="stroke-width:15;stroke-linecap:round;stroke-linejoin:round;stroke-miterlimit:10;stroke-dasharray:none;stroke-opacity:1" transform="translate(264.344 64.069)" fill="none" stroke="#000000" stroke-width="15" stroke-linecap="round" stroke-linejoin="round" stroke-miterlimit="10" stroke-dasharray="none" stroke-opacity="" data-original="#000000" opacity="1" class=""/><path d="M0 0h23.833" style="stroke-width:15;stroke-linecap:round;stroke-linejoin:round;stroke-miterlimit:10;stroke-dasharray:none;stroke-opacity:1" transform="translate(186.361 36.652)" fill="none" stroke="#000000" stroke-width="15" stroke-linecap="round" stroke-linejoin="round" stroke-miterlimit="10" stroke-dasharray="none" stroke-opacity="" data-original="#000000" opacity="1" class=""/><path d="M0 0h90.703" style="stroke-width:15;stroke-linecap:round;stroke-linejoin:round;stroke-miterlimit:10;stroke-dasharray:none;stroke-opacity:1" transform="translate(234.936 36.652)" fill="none" stroke="#000000" stroke-width="15" stroke-linecap="round" stroke-linejoin="round" stroke-miterlimit="10" stroke-dasharray="none" stroke-opacity="" data-original="#000000" opacity="1" class=""/><path d="M0 0c-10.961-24.005-17.123-50.575-17.187-78.463-.216-93.466 66.161-171.458 154.343-189.219a12.945 12.945 0 0 0 8.44-5.84l18.801-30.216c5.064-8.137 16.907-8.137 21.969 0l18.802 30.215a12.963 12.963 0 0 0 8.457 5.844c88.031 17.739 154.327 95.503 154.327 188.761 0 105.364-84.62 190.964-189.606 192.548-68.101 1.027-129.028-34.363-164.13-87.875" style="stroke-width:15;stroke-linecap:round;stroke-linejoin:round;stroke-miterlimit:10;stroke-dasharray:none;stroke-opacity:1" transform="translate(80.618 390.848)" fill="none" stroke="#000000" stroke-width="15" stroke-linecap="round" stroke-linejoin="round" stroke-miterlimit="10" stroke-dasharray="none" stroke-opacity="" data-original="#000000" opacity="1" class=""/><path d="M0 0c18.722 26.497 29.725 58.837 29.725 93.749 0 89.831-72.823 162.654-162.655 162.654-89.831 0-162.654-72.823-162.654-162.654S-222.761-68.905-132.93-68.905c44.483 0 84.787 17.863 114.152 46.798" style="stroke-width:15;stroke-linecap:round;stroke-linejoin:round;stroke-miterlimit:10;stroke-dasharray:none;stroke-opacity:1" transform="translate(388.93 218.181)" fill="none" stroke="#000000" stroke-width="15" stroke-linecap="round" stroke-linejoin="round" stroke-miterlimit="10" stroke-dasharray="none" stroke-opacity="" data-original="#000000" opacity="1" class=""/><path d="m0 0-69.608-50.573a34.298 34.298 0 0 1-12.459-38.346l26.588-81.83a34.295 34.295 0 0 1 32.618-23.698H63.18a34.298 34.298 0 0 1 32.619 23.698l26.588 81.83c4.592 14.131-.439 29.611-12.459 38.346L40.319 0A34.3 34.3 0 0 1 0 0" style="fill-opacity:1;fill-rule:nonzero;stroke:none" transform="translate(235.84 409.8)" fill="#ffd100" data-original="#ff5cab" class="" opacity="1"/><path d="m0 0-69.608 50.574c-11.916 8.657-28.009 8.721-39.997.215a34.215 34.215 0 0 0 15.502-6.215L-24.494-6a34.296 34.296 0 0 0 12.459-38.345l-26.588-81.83c-2.402-7.394-7.168-13.52-13.281-17.698h5.156a34.298 34.298 0 0 1 32.619 23.698l26.588 81.83C17.051-24.214 12.021-8.732 0 0" style="fill-opacity:1;fill-rule:nonzero;stroke:none" transform="translate(345.768 359.226)" fill="#ff9e00" data-original="#ff3b9b" class="" opacity="1"/><path d="M0 0h78.157" style="stroke-width:15;stroke-linecap:round;stroke-linejoin:round;stroke-miterlimit:10;stroke-dasharray:none;stroke-opacity:1" transform="translate(203.566 344.69)" fill="none" stroke="#000000" stroke-width="15" stroke-linecap="round" stroke-linejoin="round" stroke-miterlimit="10" stroke-dasharray="none" stroke-opacity="" data-original="#000000" opacity="1" class=""/><path d="m0 0-2.052-31.517a82.56 82.56 0 0 1 35.001-72.969l15.875-11.125" style="stroke-width:15;stroke-linecap:round;stroke-linejoin:round;stroke-miterlimit:10;stroke-dasharray:none;stroke-opacity:1" transform="translate(238.178 369.736)" fill="none" stroke="#000000" stroke-width="15" stroke-linecap="round" stroke-linejoin="round" stroke-miterlimit="10" stroke-dasharray="none" stroke-opacity="" data-original="#000000" opacity="1" class=""/><path d="m0 0-3.702-12.362c-5.314-17.74-25.692-25.993-41.852-16.95C-57.979-22.358-63.5-7.399-58.57 5.958l2.414 6.542a28.935 28.935 0 0 0 25.638 18.88l25.609 1.337c19.212 1.003 36.29-12.142 40.238-30.97l4.387-20.917" style="stroke-width:15;stroke-linecap:round;stroke-linejoin:round;stroke-miterlimit:10;stroke-dasharray:none;stroke-opacity:1" transform="translate(268.718 287.86)" fill="none" stroke="#000000" stroke-width="15" stroke-linecap="round" stroke-linejoin="round" stroke-miterlimit="10" stroke-dasharray="none" stroke-opacity="" data-original="#000000" opacity="1" class=""/><path d="m0 0-69.608-50.573a34.298 34.298 0 0 1-12.459-38.346l26.588-81.83a34.295 34.295 0 0 1 32.618-23.698H63.18a34.298 34.298 0 0 1 32.619 23.698l26.588 81.83c4.592 14.131-.439 29.611-12.459 38.346L40.319 0A34.3 34.3 0 0 1 0 0Z" style="stroke-width:15;stroke-linecap:round;stroke-linejoin:round;stroke-miterlimit:10;stroke-dasharray:none;stroke-opacity:1" transform="translate(235.84 409.8)" fill="none" stroke="#000000" stroke-width="15" stroke-linecap="round" stroke-linejoin="round" stroke-miterlimit="10" stroke-dasharray="none" stroke-opacity="" data-original="#000000" opacity="1" class=""/></g></g></svg>