<svg id="Layer_2" viewBox="0 0 512 512" xmlns="http://www.w3.org/2000/svg" data-name="Layer 2"><g id="Icon"><g id="_14" data-name="14"><g id="Body"><circle cx="256" cy="256" fill="#ffda24" r="256"/><path d="m512 256c0 141.38-114.62 256-256 256s-256-114.62-256-256c0-10.15.59-20.16 1.74-30 14.85 127.24 123.03 226 254.26 226s239.41-98.76 254.26-226c1.15 9.84 1.74 19.85 1.74 30z" fill="#ffc024"/></g><g id="Mouth"><path d="m156.22 230.39h199.57c15.3 0 27.72 12.42 27.72 27.72v.49c0 70.1-56.91 127.01-127.01 127.01h-.49c-70.37 0-127.5-57.13-127.5-127.5 0-15.3 12.42-27.72 27.72-27.72z" fill="#473535"/><path d="m334.8 358.61c-21.58 16.91-48.76 27-78.31 27h-.49c-29.69 0-57-10.14-78.67-27.16 17.79-24.1 46.41-39.74 78.67-39.74s61.01 15.7 78.8 39.9z" fill="#ff7e27"/><path d="m369.64 234.11v7.37c0 18.36-14.89 33.26-33.26 33.26h-160.76c-18.37 0-33.26-14.9-33.26-33.26v-7.37c4.08-2.36 8.81-3.71 13.86-3.71h199.57c5.04 0 9.78 1.35 13.86 3.71z" fill="#fff"/></g><g id="Eyes" fill="#473535"><path d="m299.92 169.15c-3.15 0-6.33-.85-9.21-2.63-8.22-5.09-10.74-15.89-5.66-24.11 2.62-4.23 26.57-41.34 60.66-41.34s58.04 37.11 60.66 41.34c5.09 8.22 2.55 19-5.67 24.09-8.21 5.08-18.97 2.56-24.06-5.63-5.08-8.1-19.32-24.81-30.92-24.81s-25.84 16.71-30.92 24.81c-3.31 5.34-9.02 8.28-14.87 8.28z"/><path d="m120.5 169.15c-3.15 0-6.33-.85-9.21-2.63-8.22-5.09-10.74-15.89-5.66-24.11 2.62-4.23 26.57-41.34 60.66-41.34s58.04 37.11 60.66 41.34c5.09 8.22 2.55 19-5.67 24.09s-19 2.55-24.09-5.67c-5.05-8.05-19.29-24.76-30.89-24.76s-25.84 16.71-30.92 24.81c-3.31 5.34-9.02 8.28-14.87 8.28z"/></g></g></g></svg>