<svg id="Icons" height="512" viewBox="0 0 60 60" width="512" xmlns="http://www.w3.org/2000/svg"><path d="m59 33.724c0 16.016-12.984 23.276-29 23.276s-29-7.26-29-23.276c0-17.69 12.984-30.724 29-30.724s29 13.034 29 30.724z" fill="#f4b925"/><path d="m17.13 17.62.85-.53a5.691 5.691 0 0 1 1.02-.09c4.42 0 8 4.48 8 10s-3.58 10-8 10-8-4.48-8-10a12.166 12.166 0 0 1 .62-3.87z" fill="#262633"/><circle cx="21" cy="29" fill="#fff" r="2"/><path d="m38.74 17.41a6.374 6.374 0 0 1 2.26-.41 5.691 5.691 0 0 1 1.02.09l4.66 2.87a11.372 11.372 0 0 1 2.32 7.04c0 5.52-3.58 10-8 10s-8-4.48-8-10a12.166 12.166 0 0 1 .62-3.87z" fill="#262633"/><g fill="#fff"><path d="m41 21a4 4 0 0 1 -7.38 2.13 8.944 8.944 0 0 1 5.12-5.72 3.975 3.975 0 0 1 2.26 3.59z"/><circle cx="43" cy="29" r="2"/><path d="m19 21a4 4 0 0 1 -7.38 2.13 10.366 10.366 0 0 1 1.7-3.17l3.81-2.34.1.07a3.964 3.964 0 0 1 1.77 3.31z"/></g><path d="m48.85 52.46c-5.07 3.07-11.65 4.54-18.85 4.54-16.02 0-29-7.26-29-23.28a32.267 32.267 0 0 1 4.91-17.43 34.759 34.759 0 0 0 -2.91 14.14c0 16.91 13.71 24.57 30.61 24.57a43.048 43.048 0 0 0 15.24-2.54z" fill="#db932a"/><path d="m33 42a1 1 0 0 1 -.716-.3 3.148 3.148 0 0 0 -2.284-.7 3.148 3.148 0 0 0 -2.284.7 1 1 0 0 1 -1.432-1.4 5.038 5.038 0 0 1 3.716-1.3 5.038 5.038 0 0 1 3.716 1.3 1 1 0 0 1 -.716 1.7z" fill="#845523"/><path d="m10 22a1 1 0 0 1 -.165-1.986 17 17 0 0 0 9.385-5.639 1 1 0 0 1 1.562 1.25 18.742 18.742 0 0 1 -10.617 6.361.927.927 0 0 1 -.165.014z" fill="#845523"/><path d="m50 22a.927.927 0 0 1 -.165-.014 18.742 18.742 0 0 1 -10.617-6.361 1 1 0 1 1 1.562-1.25 17 17 0 0 0 9.385 5.639 1 1 0 0 1 -.165 1.986z" fill="#845523"/></svg>