<svg id="Layer_1" viewBox="0 0 512 512" xmlns="http://www.w3.org/2000/svg" data-name="Layer 1"><circle cx="420.921" cy="420.904" fill="#80b4fb" r="59.092"/><path d="m497.043 297.24c4.25-1.962 6.97-6.215 6.97-10.895v-60.689c0-4.682-2.724-8.937-6.976-10.897l-43.071-19.859-14.751-35.658 16.38-44.498c1.617-4.392.533-9.322-2.776-12.631l-42.917-42.916c-3.309-3.309-8.24-4.392-12.631-2.776l-44.497 16.38-35.658-14.751-19.859-43.071c-1.96-4.252-6.215-6.976-10.897-6.976h-60.689c-4.68 0-8.933 2.721-10.895 6.97l-19.886 43.075-35.661 14.752-44.498-16.38c-4.392-1.617-9.322-.533-12.631 2.776l-42.916 42.916c-3.311 3.311-4.393 8.244-2.774 12.637l16.403 44.491-14.774 35.659-43.047 19.86c-4.251 1.961-6.973 6.215-6.973 10.896v60.689c0 4.679 2.72 8.932 6.968 10.894l43.053 19.888 14.774 35.637-9.247 25.119-41.015 41.007c-19.426 19.464-19.422 51.106.008 70.537 9.396 9.396 21.927 14.57 35.287 14.57s25.891-5.174 35.287-14.57l40.968-40.968 25.125-9.257 35.663 14.776 19.887 43.051c1.962 4.248 6.215 6.968 10.894 6.968h60.689c4.681 0 8.935-2.722 10.896-6.973l19.86-43.048 24.008-9.951c10.042 34.599 42.001 59.972 79.795 59.972 45.817 0 83.092-37.275 83.092-83.092 0-37.793-25.371-69.751-59.969-79.794l9.924-23.984 43.075-19.887zm-420.878 175.216c-4.862 4.863-11.367 7.541-18.316 7.541s-13.454-2.678-18.316-7.541c-10.082-10.082-10.078-26.506 0-36.603l145.274-145.246c3.199-3.198 4.328-7.923 2.919-12.222-2.37-7.232-3.571-14.759-3.571-22.371 0-39.617 32.231-71.848 71.848-71.848.425 0 .85.004 1.275.011l-27.11 27.128c-4.684 4.687-4.683 12.282.002 16.968l53.574 53.575c4.685 4.685 12.281 4.687 16.968.002l27.128-27.11c.007.424.011.849.011 1.274 0 39.617-32.231 71.848-71.848 71.848-7.611 0-15.138-1.201-22.372-3.571-4.298-1.408-9.022-.279-12.221 2.918l-145.246 145.246zm65.584-216.442c0-63 51.254-114.254 114.254-114.254s114.254 51.254 114.254 114.254-51.254 114.254-114.254 114.254c-12.76 0-25.435-2.157-37.414-6.295l14.812-14.812c7.391 1.794 14.965 2.701 22.602 2.701 52.851 0 95.848-42.998 95.848-95.848 0-10.244-1.594-20.288-4.739-29.854-1.301-3.958-4.563-6.959-8.617-7.925-4.055-.967-8.318.239-11.266 3.185l-34.998 34.975-36.609-36.61 34.975-34.998c2.947-2.949 4.152-7.216 3.183-11.271s-3.974-7.317-7.936-8.615c-9.591-3.142-19.631-4.735-29.843-4.735-52.851 0-95.848 42.997-95.848 95.848 0 7.638.907 15.21 2.701 22.601l-14.812 14.809c-4.138-11.969-6.295-24.642-6.295-37.41zm161.845 177.587c-2.788 1.155-5.038 3.318-6.302 6.058l-18.609 40.337h-45.335l-18.636-40.342c-1.265-2.738-3.515-4.899-6.301-6.054l-42.034-17.416 33.719-33.719c17.523 7.736 36.639 11.802 55.907 11.802 76.234 0 138.254-62.021 138.254-138.254s-62.021-138.254-138.254-138.254-138.254 62.021-138.254 138.254c0 19.28 4.067 38.392 11.804 55.897l-33.718 33.711-17.42-42.019c-1.154-2.785-3.315-5.034-6.053-6.298l-40.342-18.637v-45.334l40.337-18.609c2.741-1.265 4.904-3.515 6.059-6.303l18.368-44.333c1.156-2.79 1.218-5.912.173-8.744l-15.371-41.692 32.058-32.058 41.694 15.348c2.829 1.042 5.946.98 8.733-.172l44.333-18.34c2.79-1.154 5.042-3.318 6.308-6.059l18.637-40.368h45.331l18.61 40.363c1.265 2.744 3.519 4.909 6.311 6.064l44.333 18.34c2.786 1.152 5.903 1.213 8.732.172l41.694-15.348 32.061 32.061-15.348 41.694c-1.042 2.829-.98 5.947.172 8.732l18.34 44.334c1.155 2.792 3.321 5.045 6.064 6.31l40.363 18.61v45.331l-40.368 18.637c-2.741 1.266-4.904 3.518-6.059 6.307l-14.167 34.239c-44.621.798-80.751 36.926-81.552 81.546l-34.274 14.206zm176.42-12.697c0 32.583-26.509 59.092-59.092 59.092s-59.092-26.509-59.092-59.092 26.509-59.092 59.092-59.092 59.092 26.509 59.092 59.092zm-70.115 4.689 36.277-34.807c4.783-4.587 12.378-4.431 16.967.351 4.588 4.782 4.431 12.379-.351 16.967l-44.759 42.944c-2.324 2.229-5.317 3.341-8.307 3.341-3.074 0-6.146-1.174-8.486-3.515l-22.365-22.365c-4.686-4.687-4.686-12.284 0-16.971 4.687-4.687 12.284-4.687 16.971 0l14.054 14.054z"/><path d="m433.586 208.416-18.34-44.334c-1.152-2.786-1.214-5.903-.172-8.732l15.348-41.694-32.061-32.061-41.694 15.348c-2.829 1.041-5.947.979-8.732-.172l-44.333-18.34c-2.792-1.155-5.045-3.321-6.311-6.064l-18.61-40.363h-45.331l-18.637 40.368c-1.266 2.741-3.518 4.905-6.308 6.059l-44.333 18.34c-2.787 1.152-5.904 1.214-8.733.172l-41.694-15.348-32.058 32.058 15.371 41.692c1.044 2.833.982 5.955-.173 8.744l-18.368 44.333c-1.155 2.788-3.318 5.039-6.059 6.303l-40.337 18.609v45.334l40.342 18.637c2.737 1.264 4.898 3.513 6.053 6.298l17.42 42.019 33.718-33.711c-7.737-17.505-11.804-36.617-11.804-55.897 0-76.233 62.021-138.254 138.254-138.254s138.254 62.021 138.254 138.254-62.021 138.254-138.254 138.254c-19.268 0-38.384-4.067-55.907-11.802l-33.719 33.719 42.034 17.416c2.786 1.154 5.036 3.315 6.301 6.054l18.636 40.342h45.335l18.609-40.337c1.264-2.74 3.514-4.903 6.302-6.058l34.274-14.206c.802-44.62 36.931-80.748 81.552-81.546l14.167-34.239c1.154-2.789 3.318-5.041 6.059-6.307l40.368-18.637v-45.331l-40.363-18.61c-2.744-1.265-4.909-3.519-6.064-6.31z" fill="#ffc250"/><path d="m233.631 324.291c7.233 2.37 14.76 3.571 22.372 3.571 39.617 0 71.848-32.231 71.848-71.848 0-.425-.004-.85-.011-1.274l-27.128 27.11c-4.687 4.684-12.283 4.683-16.968-.002l-53.574-53.575c-4.685-4.686-4.687-12.281-.002-16.968l27.11-27.128c-.425-.007-.85-.011-1.275-.011-39.617 0-71.848 32.231-71.848 71.848 0 7.612 1.201 15.139 3.571 22.371 1.408 4.299.279 9.024-2.919 12.222l-145.276 145.246c-10.077 10.097-10.081 26.521 0 36.603 4.862 4.863 11.367 7.541 18.316 7.541s13.454-2.678 18.316-7.541l145.246-145.246c3.198-3.198 7.923-4.327 12.221-2.918z" fill="#4a80aa"/><path d="m256.003 351.862c-7.637 0-15.211-.907-22.602-2.701l-14.812 14.812c11.979 4.138 24.654 6.295 37.414 6.295 63 0 114.254-51.254 114.254-114.254s-51.254-114.254-114.254-114.254-114.254 51.254-114.254 114.254c0 12.768 2.157 25.441 6.295 37.41l14.812-14.809c-1.794-7.391-2.701-14.963-2.701-22.601 0-52.851 42.998-95.848 95.848-95.848 10.211 0 20.252 1.593 29.843 4.735 3.962 1.298 6.966 4.56 7.936 8.615s-.236 8.322-3.183 11.271l-34.975 34.998 36.609 36.61 34.998-34.975c2.947-2.946 7.211-4.152 11.266-3.185 4.053.966 7.315 3.967 8.617 7.925 3.145 9.566 4.739 19.61 4.739 29.854 0 52.851-42.997 95.848-95.848 95.848z" fill="#e4f6ff"/></svg>