<svg id="Capa_1" enable-background="new 0 0 512 512" height="512" viewBox="0 0 512 512" width="512" xmlns="http://www.w3.org/2000/svg"><g><path d="m440.596 448.266-8.264 63.734h-110.771l-45-123.734z" fill="#ffbc70"/><path d="m321.561 388.266v123.734h-110.77l-8.264-63.745z" fill="#ffd57a"/><path d="m480.133 143.402-39.537 304.864h-119.035l-90-349.864z" fill="#ffa061"/><path d="m321.561 98.402v349.864l-119.034-.011-39.537-304.853z" fill="#ffbc70"/><path d="m448.266 0 31.867 79.668-218.572 45 60-124.668z" fill="#385eab"/><path d="m321.561 0v124.668l-158.571-45 31.867-79.668z" fill="#4a70c7"/><path d="m321.562 79.668-45 31.867 45 31.867h190.438v-63.734z" fill="#24478a"/><path d="m131.123 79.668h190.438v63.734h-190.438z" fill="#385eab"/><path d="m131.122 207.142-65.019 130.039 65.019 132.206c72.417 0 131.122-58.706 131.122-131.122s-58.705-131.123-131.122-131.123z" fill="#bfdfff"/><path d="m0 338.265c0 72.417 58.705 131.122 131.122 131.122v-262.245c-72.417 0-131.122 58.706-131.122 131.123z" fill="#e3f1ff"/><path d="m146.122 254.938h-15l-7.5 15v85.647h7.5l15-8.66z" fill="#24478a"/><path d="m116.122 254.938v74.666l-64.658 37.331 15 25.98 64.658-37.33v-100.647z" fill="#4a70c7"/></g></svg>
