<?xml version="1.0" standalone="no"?>
<svg xmlns="http://www.w3.org/2000/svg" version="1.1" width="512" height="512" viewBox="0 0 512 512" xml:space="preserve"><g fill="#00c9cd"><path d="M455.4 86.4h-11.1v21.5c0 28.1-22.9 51-51 51h-7.8c-28.1 0-51-22.9-51-51V86.4H177.6v21.5c0 28.1-22.9 51-51 51h-7.8c-28.1 0-51-22.9-51-51V86.4H56.6C28.7 86.4 6 109.1 6 137v303c0 28 22.7 50.6 50.6 50.6h398.7c28 0 50.6-22.7 50.6-50.6V137c.1-27.9-22.6-50.6-50.5-50.6zM471 423.7c0 18.5-15 33.4-33.4 33.4H74.4c-18.5 0-33.4-15-33.4-33.4V195.5c0-12.2 9.8-22 22-22h386c12.2 0 22 9.8 22 22z"/><path d="M126.6 138.9h-7.8c-17.1 0-31-13.9-31-31V52.3c0-17.1 13.9-31 31-31h7.8c17.1 0 31 13.9 31 31v55.6c0 17.1-13.9 31-31 31zM393.2 138.9h-7.8c-17.1 0-31-13.9-31-31V52.3c0-17.1 13.9-31 31-31h7.8c17.1 0 31 13.9 31 31v55.6c0 17.1-13.9 31-31 31zM211.2 396.4h-29.6V274.3H151v-22.7l60.1-5.3v150.1zM360.9 271.3c-16.7 19.6-28.1 37.2-34.1 52.9s-9 33.6-9 53.9v18.3h-29.7v-18.3c0-20.6 3.8-39.4 11.3-56.3 7.6-17 18.5-33.8 33-50.4h-75.5v-22.9h104z"/></g></svg>
