<svg id="Layer_1" enable-background="new 0 0 68 68" viewBox="0 0 68 68" xmlns="http://www.w3.org/2000/svg"><g><g><path d="m51.1 7.88v51.75c0 1.9-1.55 3.44-3.45 3.44h-42.22c-1.9 0-3.44-1.54-3.44-3.44v-51.75c0-1.9 1.54-3.44 3.44-3.44h42.22c1.9 0 3.45 1.54 3.45 3.44z" fill="#3c5056"/><path d="m54.09 10.88v51.74c0 1.9-1.54 3.45-3.44 3.45h-42.22c-1.9 0-3.45-1.55-3.45-3.45v-51.74c0-1.9 1.55-3.45 3.45-3.45h42.22c1.9 0 3.44 1.55 3.44 3.45z" fill="#495e66"/><path d="m50.53 13.07v40.2 9.22h-39.91c-1.14 0-2.07-.93-2.07-2.07v-47.35c0-1.14.93-2.07 2.07-2.07h37.84c1.14 0 2.07.93 2.07 2.07z" fill="#fff"/><path d="m41.5 9.26v1.78c0 .88-.72 1.6-1.61 1.6h-20.71c-.89 0-1.6-.72-1.6-1.6v-1.78c0-1.54 1.25-2.8 2.79-2.8h5.22v-.57c0-2.18 1.76-3.96 3.95-3.96 1.09 0 2.09.46 2.8 1.16.71.71 1.16 1.71 1.16 2.8v.57h5.2c1.54 0 2.8 1.26 2.8 2.8z" fill="#fbe063"/><path d="m29.54 4.62c.74 0 1.33.6 1.33 1.33 0 .74-.6 1.33-1.33 1.33-.75 0-1.35-.6-1.35-1.33.01-.73.6-1.33 1.35-1.33z" fill="#fff"/><g><g><path d="m65.7 28.31-13.39 24.56-8.47-4.62 13.4-24.55c.68-1.24 2.23-1.7 3.47-1.03l3.98 2.17c1.23.68 1.69 2.24 1.01 3.47z" fill="#8f90fb"/><path d="m52.31 52.87-6.67 4.03c-.68.41-1.54-.06-1.57-.86l-.22-7.79z" fill="#fbe063"/><path d="m43.99 53.5.07 2.55c.03.79.89 1.26 1.57.86l2.18-1.32z" fill="#495e66"/><g><path d="m52.83 42.34c-.08 0-.16-.02-.24-.06-.24-.13-.33-.44-.2-.68l5.77-10.58c.13-.24.44-.33.68-.2s.33.44.2.68l-5.77 10.58c-.09.17-.26.26-.44.26z" fill="#5b52c5"/></g></g></g><g><g><path d="m21.62 35.99v4.9c0 .88-.71 1.59-1.59 1.59h-4.9c-.87 0-1.58-.71-1.58-1.59v-4.9c0-.88.71-1.59 1.58-1.59h4.9c.88 0 1.59.71 1.59 1.59z" fill="#54e28e"/><g><g><path d="m45.53 35.27h-11.66c-.28 0-.5-.22-.5-.5s.22-.5.5-.5h11.66c.28 0 .5.22.5.5s-.22.5-.5.5z" fill="#e2e2e0"/></g><g><path d="m31.28 35.27h-3.58c-.28 0-.5-.22-.5-.5s.22-.5.5-.5h3.58c.28 0 .5.22.5.5s-.22.5-.5.5z" fill="#e2e2e0"/></g><g><path d="m45.53 38.94h-2.87c-.28 0-.5-.22-.5-.5s.22-.5.5-.5h2.87c.28 0 .5.22.5.5s-.22.5-.5.5z" fill="#e2e2e0"/></g><g><path d="m40.03 38.94h-12.33c-.28 0-.5-.22-.5-.5s.22-.5.5-.5h12.33c.28 0 .5.22.5.5s-.22.5-.5.5z" fill="#e2e2e0"/></g><g><path d="m38.95 42.61h-11.25c-.28 0-.5-.22-.5-.5s.22-.5.5-.5h11.25c.28 0 .5.22.5.5s-.22.5-.5.5z" fill="#e2e2e0"/></g></g></g><g><path d="m21.62 47.77v4.9c0 .88-.71 1.59-1.59 1.59h-4.9c-.87 0-1.58-.71-1.58-1.59v-4.9c0-.88.71-1.59 1.58-1.59h4.9c.88 0 1.59.71 1.59 1.59z" fill="#54e28e"/><g><g><path d="m39.7 47.06h-5.83c-.28 0-.5-.22-.5-.5s.22-.5.5-.5h5.83c.28 0 .5.22.5.5s-.23.5-.5.5z" fill="#e2e2e0"/></g><g><path d="m31.28 47.06h-3.58c-.28 0-.5-.22-.5-.5s.22-.5.5-.5h3.58c.28 0 .5.22.5.5s-.22.5-.5.5z" fill="#e2e2e0"/></g><g><path d="m37.53 50.72h-9.83c-.28 0-.5-.22-.5-.5s.22-.5.5-.5h9.83c.28 0 .5.22.5.5s-.22.5-.5.5z" fill="#e2e2e0"/></g><g><path d="m34.66 54.39h-6.96c-.28 0-.5-.22-.5-.5s.22-.5.5-.5h6.96c.28 0 .5.22.5.5s-.23.5-.5.5z" fill="#e2e2e0"/></g></g></g><g><path d="m16.97 39.95c-.13 0-.26-.05-.35-.15l-.82-.82c-.2-.2-.2-.51 0-.71s.51-.2.71 0l.47.47 1.66-1.66c.2-.2.51-.2.71 0s.2.51 0 .71l-2.02 2.01c-.1.09-.23.15-.36.15z" fill="#fff"/></g><g fill="#5b52c5"><path d="m20.8 19.46v1.1h-3.1v8.1h-1.26v-8.1h-3.1v-1.1z"/><path d="m22.06 19.46h6.71v1.13h-5.49v2.79h5.08v1.06h-5.08v3.12h5.59v1.1h-6.8v-9.2z"/><path d="m31.31 25.69c.03.52.15.95.37 1.27.41.61 1.14.91 2.19.91.47 0 .89-.07 1.28-.2.74-.26 1.11-.72 1.11-1.39 0-.5-.16-.86-.47-1.07-.32-.21-.81-.39-1.49-.54l-1.25-.28c-.81-.18-1.39-.39-1.73-.61-.58-.38-.88-.96-.88-1.72 0-.83.29-1.5.86-2.04.57-.53 1.38-.8 2.43-.8.96 0 1.78.23 2.46.7.67.47 1.01 1.21 1.01 2.23h-1.17c-.06-.49-.2-.87-.4-1.13-.38-.48-1.02-.72-1.93-.72-.73 0-1.26.15-1.58.46s-.48.67-.48 1.08c0 .45.19.78.56.99.25.13.8.3 1.67.5l1.29.29c.62.14 1.1.34 1.44.58.58.43.88 1.05.88 1.87 0 1.02-.37 1.75-1.11 2.19s-1.6.66-2.58.66c-1.14 0-2.04-.29-2.69-.88-.65-.58-.96-1.37-.95-2.36h1.16z"/><path d="m45.74 19.46v1.1h-3.1v8.1h-1.26v-8.1h-3.1v-1.1z"/></g></g></g><path d="m57.95 25.33h2.52v9.64h-2.52z" fill="#efefed" transform="matrix(.479 -.878 .878 .479 4.385 67.696)"/><path d="m64.04 31.36 1.66-3.04c.68-1.24.22-2.8-1.02-3.47l-3.98-2.17c-1.24-.68-2.79-.21-3.47 1.03l-1.66 3.04z" fill="#54e28e"/></g></svg>