<?xml version="1.0" standalone="no"?>
<svg xmlns="http://www.w3.org/2000/svg" version="1.1" width="512" height="512" viewBox="0 0 64 64"><g><path d="M31.213 54.366c.014.017.036.024.05.041a.982.982 0 0 0 .248.201c.032.018.061.037.096.052.122.053.253.09.393.09s.271-.037.394-.091c.034-.015.063-.033.095-.052a.982.982 0 0 0 .248-.201c.015-.016.036-.023.05-.041l27-34.5a1 1 0 0 0-.08-1.323l-9-9A1 1 0 0 0 50 9.25H14a.997.997 0 0 0-.707.293l-9 9a1 1 0 0 0-.08 1.323zM32 49.789 24.294 20.25h15.411zm2.185-.454 7.587-29.085h15.175zM56.586 18.25H43.414L50 11.664zm-9-7L41 17.836l-6.586-6.586zm-9 7H25.414L32 11.664zm-9-7L23 17.836l-6.586-6.586zM14 11.664l6.586 6.586H7.414zm8.227 8.586 7.587 29.085L7.052 20.25z" fill="#3b82f6"/></g></svg>
