<?xml version="1.0" encoding="UTF-8"?>
<svg xmlns="http://www.w3.org/2000/svg" version="1.1" viewBox="0 0 512 512">
<g fill="none" stroke="currentColor" stroke-width="22" stroke-linecap="round" stroke-linejoin="round" stroke-miterlimit="10">
  <path d="M278.672,198.998c-4.709-54.48-41.911-102.888-96.894-118.611c-71.049-20.313-144.889,21.607-164.931,93.64 c-10.472,37.643-4.177,76.05,14.359,107.046L10,336.778l55.736-17.18c49.647,37.411,119.404,35.889,167.602-6.627"/>
  <path d="M330.225,170.756c71.047-20.317,144.886,21.606,164.926,93.64c10.471,37.639,4.173,76.045-14.357,107.044L502,427.147 l-55.736-17.182c-12.709,9.582-27.318,17.027-43.47,21.646c-71.047,20.317-144.887-21.606-164.926-93.64 C217.828,265.939,259.178,191.073,330.225,170.756z"/>
  <line x1="311.265" y1="296.163" x2="311.265" y2="296.163"/>
  <line x1="366.449" y1="296.163" x2="366.449" y2="296.163"/>
  <line x1="421.633" y1="296.163" x2="421.633" y2="296.163"/>
  <line x1="105.388" y1="180.694" x2="185.714" y2="180.694"/>
  <path d="M165.633,180.694c0,35.978-23.022,67.918-57.153,79.296l-3.092,1.03"/>
  <path d="M125.469,180.694c0,35.978,23.022,67.918,57.153,79.296l3.092,1.03"/>
  <line x1="145.551" y1="160.612" x2="145.551" y2="180.694"/>
</g>
</svg>
