<svg id="Layer_2" viewBox="0 0 512 512" xmlns="http://www.w3.org/2000/svg" data-name="Layer 2"><g id="Icon"><path id="_20" d="m256 0c-141.39 0-256 114.61-256 256s114.61 256 256 256c141.38 0 256-114.61 256-256s-114.61-256-256-256zm159.81 415.81c-42.69 42.69-99.44 66.19-159.81 66.19s-117.12-23.51-159.81-66.19c-42.69-42.69-66.19-99.44-66.19-159.81s23.51-117.12 66.19-159.81c42.69-42.69 99.44-66.19 159.81-66.19s117.12 23.51 159.81 66.19c42.69 42.69 66.19 99.44 66.19 159.81s-23.51 117.12-66.19 159.81zm-223.6-44.01h128.02v29.21h-128.02zm124.76-193.94v134.88l17.86 4.54v29.06h-60.96l-3.69-19c-4.63 7.18-10.11 12.64-16.45 16.38-6.33 3.73-13.85 5.6-22.54 5.6-12 0-22.33-3.17-30.98-9.5s-15.26-15.24-19.85-26.72c-4.59-11.49-6.88-24.88-6.88-40.19v-2.98c0-15.97 2.31-29.94 6.95-41.89 4.63-11.96 11.22-21.27 19.78-27.93 8.55-6.66 18.69-10 30.41-10 8.13 0 15.15 1.68 21.05 5.03 5.9 3.36 11.08 8.06 15.52 14.11v-31.38h-27.08v-21.98h27.08v-11.14l-21.55-4.54v-29.21h71.31v44.88h21.55v21.98h-21.55zm-49.76 62.29c-2.36-3.87-5.27-6.83-8.72-8.86s-7.3-3.05-11.56-3.05c-5.67 0-10.26 1.75-13.75 5.25-3.5 3.5-6.03 8.36-7.58 14.6-1.56 6.24-2.34 13.52-2.34 21.83v2.98c0 12.19 1.7 21.62 5.1 28.28s9.5 9.99 18.29 9.99c4.16 0 8.03-.8 11.63-2.41 3.59-1.61 6.57-4.02 8.93-7.23v-61.39z" data-name="20"/></g></svg>