<svg id="Layer_1" enable-background="new 0 0 175 175" viewBox="0 0 175 175" xmlns="http://www.w3.org/2000/svg"><circle cx="87.41" cy="87.5" fill="#0af" r="86.895"/><path d="m77.76 98.03 2.9-3.79 4.49-5.87 7.85-10.25c1.72-2.22 3.06-4.52 4.01-6.89.95-2.38 1.42-4.59 1.42-6.64v-.13c0-3.18-.98-5.64-2.95-7.38-1.96-1.74-4.76-2.61-8.38-2.61-3.49 0-6.3 1.05-8.45 3.16-1.15 1.14-2.06 2.54-2.72 4.19-1.17 2.94-4.14 4.8-7.34 4.8-4.61 0-8-3.72-8-7.89 0-1.02.21-2.07.65-3.1.55-1.28 1.18-2.5 1.88-3.65 2.47-4.05 5.74-7.14 9.8-9.28 4.07-2.13 8.75-3.2 14.05-3.2 5.87 0 10.89.97 15.04 2.91s7.32 4.76 9.51 8.46c2.18 3.7 3.28 8.17 3.28 13.4v.06c0 3.84-.74 7.73-2.22 11.67s-3.53 7.63-6.13 11.07l-25.84 33.46h27.13c4.19 0 7.59 3.35 7.59 7.49 0 2.06-.85 3.94-2.22 5.29-1.38 1.35-3.27 2.19-5.37 2.19h-37.55c-5.81 0-10.52-4.65-10.52-10.38 0-2.25.75-4.45 2.13-6.25l11.46-14.97z" fill="#fff"/></svg>