<svg id="Layer_1" enable-background="new 0 0 175 175" viewBox="0 0 175 175" xmlns="http://www.w3.org/2000/svg"><circle cx="87.365" cy="87.5" fill="#0af" r="86.895"/><path d="m84.04 135.29c1.36.14 2.76.21 4.2.21 5.8 0 10.78-1.01 14.92-3.04s7.29-4.98 9.45-8.86 3.24-8.56 3.24-14.04v-2.2c0-5.91-1.35-10.77-4.03-14.59s-6.46-6.26-11.35-7.34c4.41-1.6 7.81-4.08 10.21-7.44s3.6-7.31 3.6-11.84v-2.2c0-7.76-2.28-13.78-6.84-18.05s-10.98-6.4-19.26-6.4c-4.97 0-9.43 1.01-13.38 3.04-3.94 2.03-7.17 5-9.68 8.93-.62.97-1.19 2-1.7 3.07-.51 1.06-.74 2.16-.74 3.23 0 4.06 3.36 7.74 7.87 7.74 3 0 5.84-1.63 7.09-4.33.3-.64.62-1.24.99-1.79 1.09-1.66 2.41-2.9 3.96-3.72 1.54-.82 3.3-1.23 5.26-1.23 3.23 0 5.72.9 7.49 2.69s2.65 4.34 2.65 7.66v2.27c0 3.53-.82 6.28-2.45 8.25-.82.98-1.81 1.71-2.97 2.21-1.16.48-2.49.73-4 .73-4.08 0-7.39 3.27-7.39 7.31v.13c0 2.02.83 3.85 2.16 5.17 1.34 1.32 3.19 2.14 5.23 2.14 3.53 0 6.25 1.13 8.14 3.4 1.9 2.26 2.85 5.46 2.85 9.6v2.52c0 3.84-1.07 6.81-3.21 8.9-2.13 2.09-5.16 3.14-9.09 3.14-2.31 0-4.34-.39-6.08-1.17-1.74-.77-3.16-1.93-4.25-3.46-.34-.48-.65-1-.92-1.55-.63-1.32-1.65-2.38-2.88-3.11-1.22-.73-2.66-1.13-4.14-1.13-5.99 0-9.77 6.3-6.98 11.54.39.74.82 1.45 1.28 2.14.84 1.27 1.78 2.43 2.81 3.49l5.97 4.48c.47.25.96.5 1.46.73.95.45 1.93.84 2.95 1.18z" fill="#fff"/></svg>