<?xml version="1.0" standalone="no"?>
<svg xmlns="http://www.w3.org/2000/svg" version="1.1" width="512" height="512" viewBox="0 0 512 512"><g fill="none" stroke="#3b82f6" stroke-width="20" stroke-linecap="round" stroke-linejoin="round" stroke-miterlimit="22.9256" fill-rule="evenodd" clip-rule="evenodd"><path d="M36 229.999V476h440V229.999M10 148.003h492v80H10zM217.994 147.347c-5.216-7.933-8.361-17.018-8.361-25.746 0-23.148 16.616-36.012 46.367-36.012 29.75 0 46.367 12.864 46.367 36.012 0 8.728-3.145 17.813-8.361 25.746"/><path d="M213.176 103.339C149.538 48.596 49.707-9.503 37.572 90.279c-3.607 29.663 4.837 47.088 20.126 57.068"/><path d="M210.288 143.628c-15.181-9.689-55.208-30.534-91.378-39.842M298.755 103.399c63.635-54.76 163.534-112.938 175.673-13.12 3.607 29.663-4.837 47.088-20.126 57.068"/><path d="M301.711 143.628c15.181-9.689 55.208-30.534 91.378-39.842M201 155.284v67.719M310.999 155.284v67.719M221 471.001V233.003M290.999 471.001V233.003"/></g></svg>
