<?xml version="1.0" standalone="no"?>
<svg xmlns="http://www.w3.org/2000/svg" version="1.1" width="512" height="512" viewBox="0 0 32 32" xml:space="preserve"><g fill="#6621ba"><path d="M28.399 24.93a.9.9 0 0 1-.9-.9V13.883a.9.9 0 0 1 1.8 0V24.03a.9.9 0 0 1-.9.9z"/><path d="M29.536 11.475 17.379 4.412a3.306 3.306 0 0 0-3.319 0L1.902 11.475c-.502.292-.802.813-.802 1.394s.3 1.102.802 1.395l3.686 2.142v4.979a3.25 3.25 0 0 0 1.622 2.808l5.074 2.925c1.059.61 2.247.916 3.435.916s2.375-.305 3.435-.916l5.073-2.925a3.248 3.248 0 0 0 1.623-2.808v-4.98l3.686-2.141c.503-.292.803-.813.803-1.394s-.3-1.103-.803-1.395zm-5.486 9.909c0 .514-.275.992-.721 1.248l-5.073 2.925a5.097 5.097 0 0 1-5.072 0L8.11 22.632a1.443 1.443 0 0 1-.721-1.248v-3.933l6.671 3.876a3.308 3.308 0 0 0 3.32 0l6.671-3.876v3.933zm-7.575-1.613a1.506 1.506 0 0 1-1.511 0L3.085 12.869l11.878-6.902a1.506 1.506 0 0 1 1.511 0l11.879 6.901z"/><circle cx="28.399" cy="24.03" r="1.601"/></g></svg>
