<?xml version="1.0" standalone="no"?>
<svg xmlns="http://www.w3.org/2000/svg" version="1.1" xmlns:xlink="http://www.w3.org/1999/xlink" width="512" height="512" x="0" y="0" viewBox="0 0 24 24" style="enable-background:new 0 0 512 512" xml:space="preserve" class=""><g><path d="M21.16 16.634A19.6 19.6 0 0 0 21.75 12a9.75 9.75 0 0 0-19.5 0 19.6 19.6 0 0 0 .59 4.634c.007.033.006.065.014.1.018.073.043.14.062.212s.038.172.062.257c0 .019.019.033.026.052.1.346.186.7.294 1.024l.473 1.533A2.758 2.758 0 0 0 6.4 21.75a2.708 2.708 0 0 0 .8-.121l.965-.3a1.747 1.747 0 0 0 1.162-2.185l-1.482-4.851a1.75 1.75 0 0 0-2.187-1.16l-.942.288a2.723 2.723 0 0 0-.85.444A16.987 16.987 0 0 1 3.75 12a8.25 8.25 0 0 1 16.5 0 17 17 0 0 1-.116 1.866 2.7 2.7 0 0 0-.85-.444l-.942-.289a1.75 1.75 0 0 0-2.187 1.161l-1.484 4.854a1.748 1.748 0 0 0 1.161 2.186l.966.3a2.708 2.708 0 0 0 .8.121 2.758 2.758 0 0 0 2.63-1.94l.471-1.526c.11-.332.2-.677.293-1.02.008-.022.023-.04.029-.063.024-.085.04-.171.062-.256s.044-.141.062-.213c.009-.037.008-.07.015-.103zm-16-1.779.943-.289a.28.28 0 0 1 .074-.01.25.25 0 0 1 .239.176L7.9 19.589a.243.243 0 0 1-.019.189.246.246 0 0 1-.148.122l-.964.3a1.251 1.251 0 0 1-1.569-.833l-.477-1.548a18.586 18.586 0 0 1-.362-1.256c-.02-.077-.036-.155-.056-.232a1.262 1.262 0 0 1 .85-1.476zm14.118 2.964v.015l-.478 1.533a1.254 1.254 0 0 1-1.561.828l-.964-.3a.251.251 0 0 1-.167-.312l1.485-4.855a.25.25 0 0 1 .239-.177.28.28 0 0 1 .074.01l.943.29a1.261 1.261 0 0 1 .846 1.475c-.02.077-.036.155-.056.232-.113.43-.23.853-.366 1.261z" fill="#9e00ff" opacity="1" data-original="#000000"/></g></svg>