<?xml version="1.0" standalone="no"?>
<svg xmlns="http://www.w3.org/2000/svg" version="1.1" width="512" height="512" viewBox="0 0 512 512" xml:space="preserve"><g fill="#00c9cd"><path d="M87.37 393.24c18.81 47.81 34.24 78.54 37 82.51 4.55 6.53 13.93 10.5 21.42 8.9a89.71 89.71 0 0 0 18.15-6.31 92.11 92.11 0 0 0 16.53-9.8c6.06-4.67 9.22-14.14 7.45-21.56-1-4.57-13.93-34.85-31.94-80.65s-29.06-76.82-31.44-80.84c-3.76-6.64-12.5-11.43-20.12-10.74a92.74 92.74 0 0 0-18.79 4.06A89.74 89.74 0 0 0 68 286.53c-6.58 3.92-10.75 13.21-9.65 21.09.7 4.77 10.29 37.78 29.02 85.62zM453.66 307.62c1.1-7.88-3.07-17.17-9.65-21.09a89.74 89.74 0 0 0-17.6-7.72 92.74 92.74 0 0 0-18.79-4.06c-7.62-.69-16.36 4.1-20.12 10.74-2.38 4-13.49 35-31.44 80.84s-30.95 76.08-31.94 80.67c-1.76 7.42 1.39 16.89 7.45 21.56a92.11 92.11 0 0 0 16.53 9.8 89.71 89.71 0 0 0 18.15 6.31c7.49 1.6 16.87-2.37 21.42-8.9 2.72-4 18.15-34.7 37-82.51s28.33-80.87 28.99-85.64z"/><path d="M502 303.3v-30.55A19 19 0 0 0 512 256 256 256 0 0 0 75 75 254.37 254.37 0 0 0 0 256a19 19 0 0 0 10 16.73v30.57a24 24 0 0 0-9 26.12 975.06 975.06 0 0 0 66.49 169.4 24 24 0 1 0 42.84-21.65 926.57 926.57 0 0 1-63.2-161 24 24 0 0 0-19.08-17v-26.42A19 19 0 0 0 38 256a218 218 0 0 1 372.17-154.15A216.63 216.63 0 0 1 474 256a19 19 0 0 0 10 16.73v26.37a24 24 0 0 0-19.08 17 926.57 926.57 0 0 1-63.2 161 24 24 0 1 0 42.85 21.65 975.82 975.82 0 0 0 66.48-169.4A24 24 0 0 0 502 303.3z"/></g></svg>
