<?xml version="1.0"?>
<svg xmlns="http://www.w3.org/2000/svg" viewBox="0 0 24 24"><g id="Layer_2" data-name="Layer 2"><path d="M8.19,12.75H3a.75.75,0,0,1,0-1.5H8.19l-.72-.72A.75.75,0,0,1,8.53,9.47l2,2a.78.78,0,0,1,.16.24.73.73,0,0,1,0,.58.78.78,0,0,1-.16.24l-2,2a.75.75,0,0,1-1.06,0,.75.75,0,0,1,0-1.06ZM20.42,4.08l-6-1.5a1.76,1.76,0,0,0-1.5.32,1.83,1.83,0,0,0-.33.35H7A1.76,1.76,0,0,0,5.25,5V7a.75.75,0,0,0,1.5,0V5A.25.25,0,0,1,7,4.75h5.25v14.5H7A.25.25,0,0,1,6.75,19V17a.75.75,0,0,0-1.5,0v2A1.76,1.76,0,0,0,7,20.75h5.59a1.83,1.83,0,0,0,.33.35,1.79,1.79,0,0,0,1.08.37,2,2,0,0,0,.42,0l6-1.5a1.75,1.75,0,0,0,1.33-1.7V5.78A1.75,1.75,0,0,0,20.42,4.08Z"/></g></svg>
