<svg id="Capa_1" enable-background="new 0 0 512 512" height="512" viewBox="0 0 512 512" width="512" xmlns="http://www.w3.org/2000/svg"><g><path d="m413.077 416.667c0-20.26 7.883-39.303 22.197-53.625 2.815-2.802 4.426-6.631 4.426-10.642h-304.2c-35.437 0-64.267 28.83-64.267 64.267s28.83 64.267 64.267 64.267h304.2c0-4.009-1.609-7.835-4.422-10.637-14.318-14.324-22.201-33.368-22.201-53.63z" fill="#ecf7fb"/><path d="m435.278 470.296c-14.317-14.323-22.201-33.367-22.201-53.63 0-20.26 7.883-39.303 22.197-53.625 2.815-2.802 4.426-6.631 4.426-10.642h-143.533v128.533h143.533c0-4.008-1.609-7.834-4.422-10.636z" fill="#c6e4f4"/><path d="m135.5 0c-43.708 0-79.267 35.559-79.267 79.267v337.4c0 4.142 3.358 7.5 7.5 7.5s7.5-3.358 7.5-7.5c0-35.437 28.83-64.267 64.267-64.267h15v-337.4c0-8.284-6.716-15-15-15z" fill="#4793ff"/><path d="m425.767 352.4h-289.2v-352.4h304.2c8.284 0 15 6.716 15 15v307.4c0 16.568-13.432 30-30 30z" fill="#00e4ef"/><path d="m455.767 322.4v-307.4c0-8.284-6.716-15-15-15h-144.6v352.4h129.6c16.568 0 30-13.431 30-30z" fill="#2ebeef"/><path d="m376.5 234.033c-20.507 0-39.76-5.466-56.382-15.016 21.084-22.306 35.111-51.347 38.467-83.517h17.915c8.284 0 15-6.716 15-15s-6.716-15-15-15h-56.239l-27.68-41.521c-4.596-6.894-13.909-8.755-20.801-4.161-6.893 4.596-8.756 13.909-4.161 20.801l16.586 24.88h-68.372c-8.284 0-15 6.716-15 15s6.716 15 15 15h17.915c3.356 32.17 17.383 61.211 38.467 83.517-16.622 9.55-35.876 15.016-56.382 15.016-8.284 0-15 6.716-15 15s6.716 15 15 15c29.739 0 57.394-9.093 80.333-24.642 22.939 15.549 50.594 24.642 80.333 24.642 8.284 0 15-6.716 15-15s-6.715-14.999-14.999-14.999zm-64.277-98.533c.008 0 .016.001.024.001.014 0 .027-.001.041-.001h16.086c-3.35 25.269-15.039 47.942-32.208 65.15-17.168-17.207-28.857-39.88-32.208-65.15z" fill="#ecf7fb"/><path d="m135.5 367.4h305.267c8.284 0 15-6.716 15-15v-30c0 8.284-6.716 15-15 15h-305.267c-43.708 0-79.267 35.559-79.267 79.267s35.559 79.267 79.267 79.267h305.267c8.284 0 15-6.716 15-15s-6.716-15-15-15h-305.267c-27.166 0-49.267-22.101-49.267-49.267s22.101-49.267 49.267-49.267z" fill="#2ebeef"/><path d="m391.5 249.033c0-8.284-6.716-15-15-15-20.507 0-39.76-5.466-56.382-15.016 21.084-22.306 35.111-51.347 38.467-83.517h17.915c8.284 0 15-6.716 15-15s-6.716-15-15-15h-56.239l-24.094-36.142v66.142h16.056c.008 0 .016.001.024.001.014 0 .027-.001.041-.001h16.086c-3.35 25.269-15.039 47.942-32.207 65.15v38.741c22.939 15.549 50.594 24.642 80.333 24.642 8.284 0 15-6.716 15-15z" fill="#c6e4f4"/><path d="m440.767 367.4c8.284 0 15-6.716 15-15v-30c0 8.284-6.716 15-15 15h-144.6v30z" fill="#4793ff"/><path d="m455.767 480.933c0-8.284-6.716-15-15-15h-144.6v30h144.6c8.284 0 15-6.716 15-15z" fill="#4793ff"/><path d="m344.367 416.667h-96.4c-8.284 0-15 6.716-15 15v65.333c0 4.822 2.318 9.35 6.229 12.168 3.912 2.82 8.94 3.587 13.514 2.062l43.456-14.485 43.456 14.485c4.574 1.526 9.602.758 13.514-2.062 3.912-2.819 6.229-7.347 6.229-12.168v-65.333c.002-8.285-6.714-15-14.998-15z" fill="#ff7038"/><path d="m353.137 509.168c3.912-2.819 6.229-7.347 6.229-12.168v-65.333c0-8.284-6.716-15-15-15h-48.2v80.078l43.456 14.485c4.575 1.525 9.603.758 13.515-2.062z" fill="#ff405c"/><path d="m414.552 401.667h-279.052c-8.284 0-15 6.716-15 15s6.716 15 15 15h279.052c-.974-4.886-1.475-9.904-1.475-15s.501-10.115 1.475-15z" fill="#c6e4f4"/><path d="m413.077 416.667c0-5.096.501-10.114 1.475-15h-118.385v30h118.385c-.974-4.886-1.475-9.905-1.475-15z" fill="#96cfeb"/></g></svg>
