<svg fill="none" height="512" viewBox="0 0 64 64" width="512" xmlns="http://www.w3.org/2000/svg" xmlns:xlink="http://www.w3.org/1999/xlink"><clipPath id="clip0"><path d="m0 0h64v64h-64z"/></clipPath><g clip-path="url(#clip0)"><path clip-rule="evenodd" d="m28.9597.281471c1.9801-.3752947 4.1005-.3752947 6.0806 0 2.3131.438416 4.304 1.600349 7.4374 3.428999l14.4097 8.40573c1.649.9619 2.984 1.7406 3.9801 2.4251.9887.6793 1.9017 1.432 2.4572 2.4292.9004 1.6165.9004 3.4425 0 5.059-.5555.9972-1.4685 1.7499-2.4572 2.4292-.5203.3575-1.133.7408-1.8347 1.1624.7126.4426 1.3341.8443 1.8609 1.2188.9925.7056 1.8976 1.4804 2.4448 2.4967.882 1.6384.882 3.478 0 5.1164-.5472 1.0163-1.4523 1.7911-2.4448 2.4967-.4161.2958-.8913.6086-1.4238.9451.5325.3365 1.0077.6493 1.4238.9451.9925.7056 1.8976 1.4804 2.4448 2.4967.882 1.6384.882 3.478 0 5.1164-.5472 1.0163-1.4523 1.7911-2.4448 2.4967-.9963.7083-2.3316 1.5141-3.9806 2.5092l-14.4167 8.7007c-3.1262 1.8876-5.1221 3.0928-7.4437 3.548-1.9881.3899-4.1173.3899-6.1054 0-2.3216-.4552-4.3175-1.6604-7.4437-3.548l-14.41678-8.7007c-1.64898-.9951-2.98419-1.8009-3.98054-2.5092-.99246-.7056-1.89755-1.4804-2.444729-2.4967-.882068-1.6384-.882068-3.478 0-5.1164.547179-1.0163 1.452269-1.7911 2.444729-2.4967.41611-.2958.89132-.6086 1.4238-.9451-.53248-.3365-1.00769-.6493-1.4238-.9451-.99246-.7056-1.89755-1.4804-2.444729-2.4967-.882068-1.6384-.882068-3.478 0-5.1164.547179-1.0163 1.452269-1.7911 2.444729-2.4967.52681-.3745 1.14835-.7762 1.86092-1.2188-.70167-.4216-1.31441-.8049-1.83475-1.1624-.9886-.6793-1.90168-1.432-2.457139-2.4292-.900415-1.6165-.900415-3.4425 0-5.059.555459-.9972 1.468539-1.7499 2.457139-2.4292.99617-.6845 2.33106-1.4632 3.98011-2.4251l14.40974-8.40574c3.1334-1.82864 5.1243-2.990573 7.4374-3.428989zm-20.59338 39.949629c-1.28698.7794-2.23276 1.3645-2.9424 1.869-.87715.6235-1.14705.9594-1.24037 1.1327-.24473.4546-.24473.8694 0 1.324.09332.1733.36322.5092 1.24037 1.1327.85894.6106 2.06384 1.3394 3.80099 2.3878l14.04089 8.4738c3.535 2.1333 4.9048 2.928 6.4512 3.2313 1.4798.2901 3.0862.2901 4.566 0 1.5464-.3033 2.9162-1.098 6.4512-3.2313l14.0409-8.4738c1.7371-1.0484 2.942-1.7772 3.801-2.3878.8771-.6235 1.147-.9594 1.2404-1.1327.2447-.4546.2447-.8694 0-1.324-.0934-.1733-.3633-.5092-1.2404-1.1327-.7097-.5045-1.6554-1.0896-2.9424-1.869l-13.1373 7.9285c-3.1262 1.8876-5.1221 3.0928-7.4437 3.548-1.9881.3899-4.1173.3899-6.1054 0-2.3216-.4552-4.3175-1.6604-7.4437-3.548zm46.74888-12.3135c1.556.9397 2.6591 1.6125 3.4609 2.1825.8771.6235 1.147.9594 1.2404 1.1327.2447.4546.2447.8694 0 1.324-.0934.1733-.3633.5092-1.2404 1.1327-.859.6106-2.0639 1.3394-3.801 2.3878l-14.0409 8.4738c-3.535 2.1333-4.9048 2.928-6.4512 3.2313-1.4798.2901-3.0862.2901-4.566 0-1.5464-.3033-2.9162-1.098-6.4512-3.2313l-14.04089-8.4738c-1.73715-1.0484-2.94205-1.7772-3.80099-2.3878-.87715-.6235-1.14705-.9594-1.24037-1.1327-.24473-.4546-.24473-.8694 0-1.324.09332-.1733.36322-.5092 1.24037-1.1327.80174-.57 1.90488-1.2428 3.46093-2.1825l12.63745 7.3719c3.1333 1.8287 5.1243 2.9906 7.4374 3.429 1.9801.3753 4.1005.3753 6.0806 0 2.3131-.4384 4.304-1.6003 7.4374-3.429zm-20.8198-23.7061c-1.4878-.282-3.103-.282-4.5908 0-1.557.29511-2.9331 1.06785-6.4644 3.12777l-14.04095 8.19053c-1.7371 1.0133-2.94236 1.7179-3.8015 2.3082-.88101.6054-1.14292.9263-1.22796 1.079-.22639.4064-.22639.7596 0 1.166.08504.1527.34695.4736 1.22796 1.079.85914.5903 2.0644 1.2949 3.8015 2.3082l14.04095 8.1905c3.5313 2.0599 4.9074 2.8327 6.4644 3.1278 1.4878.282 3.103.282 4.5908 0 1.557-.2951 2.9331-1.0679 6.4644-3.1278l14.041-8.1905c1.7371-1.0133 2.9423-1.7179 3.8015-2.3082.881-.6054 1.1429-.9263 1.2279-1.079.2264-.4064.2264-.7596 0-1.166-.085-.1527-.3469-.4736-1.2279-1.079-.8592-.5903-2.0644-1.2949-3.8015-2.3082l-14.041-8.19053c-3.5313-2.05992-4.9074-2.83266-6.4644-3.12777z" fill="rgb(0,0,0)" fill-rule="evenodd"/></g></svg>