<?xml version="1.0"?>
<svg xmlns="http://www.w3.org/2000/svg" xmlns:xlink="http://www.w3.org/1999/xlink" id="line_copy" data-name="line copy" viewBox="0 0 64 64"><defs><style>.cls-1{fill:url(#linear-gradient);}</style><linearGradient id="linear-gradient" x1="4" y1="32" x2="60" y2="32" gradientUnits="userSpaceOnUse"><stop offset="0" stop-color="#00c0ff"/><stop offset="1" stop-color="#5558ff"/></linearGradient></defs><path class="cls-1" d="M58.3418,38.05273,56,36.88184V34.5a24,24,0,0,0-48,0v2.38184L5.6582,38.05273A2.98411,2.98411,0,0,0,4,40.73584v6.52832a2.98411,2.98411,0,0,0,1.6582,2.68311L8,51.11816V52.5a1,1,0,0,0,1,1h6a4.00458,4.00458,0,0,0,4-4v-11a4.00458,4.00458,0,0,0-4-4H14a18,18,0,0,1,36,0H49a4.00458,4.00458,0,0,0-4,4v11a4.00458,4.00458,0,0,0,4,4h6a1,1,0,0,0,1-1V51.11816l2.3418-1.17089A2.98411,2.98411,0,0,0,60,47.26416V40.73584A2.98411,2.98411,0,0,0,58.3418,38.05273ZM6.55273,48.1582A.9945.9945,0,0,1,6,47.26416V40.73584a.9945.9945,0,0,1,.55273-.894L8,39.11816v9.76368ZM10,36.5h2v15H10Zm5,0a2.002,2.002,0,0,1,2,2v11a2.002,2.002,0,0,1-2,2H14v-15ZM46.13818,20.36377A19.993,19.993,0,0,0,12,34.5H10a22,22,0,0,1,44,0H52A19.82877,19.82877,0,0,0,46.13818,20.36377ZM47,49.5v-11a2.002,2.002,0,0,1,2-2h1v15H49A2.002,2.002,0,0,1,47,49.5Zm7,2H52v-15h2Zm4-4.23584a.9945.9945,0,0,1-.55273.894L56,48.88184V39.11816l1.44727.72364a.9945.9945,0,0,1,.55273.894ZM43,44a1,1,0,0,1-1,1H39.58984a.99979.99979,0,0,1-.93652-.64941l-.95557-2.5542-2.86181,7.60547a1.00008,1.00008,0,0,1-1.87207,0L31.30762,45H30.1001a1.00016,1.00016,0,0,1-.936-.648l-.96386-2.5625-.96436,2.5625a.99994.99994,0,0,1-.936.648H22a1,1,0,0,1,0-2h3.60791l1.65625-4.40186a1.00008,1.00008,0,0,1,1.87207,0L30.79248,43H32a1.00066,1.00066,0,0,1,.936.648l.96386,2.562,2.86426-7.61182a1.00064,1.00064,0,0,1,.936-.64794h.001a1.00035,1.00035,0,0,1,.93555.64941L40.2832,43H42A1,1,0,0,1,43,44Z"/></svg>
