<?xml version="1.0" standalone="no"?>
<svg xmlns="http://www.w3.org/2000/svg" version="1.1" xmlns:xlink="http://www.w3.org/1999/xlink" width="512" height="512" x="0" y="0" viewBox="0 0 472 472.367" style="enable-background:new 0 0 512 512" xml:space="preserve" class=""><g><path d="M362.852 192h-21.336v-85.332h-288C24.05 106.668.184 82.801.184 53.332.184 23.867 24.05 0 53.516 0h309.336v21.332H53.516c-17.598 0-32 14.402-32 32 0 17.602 14.402 32 32 32h309.336zm0 0" fill="#036fff" opacity="1" data-original="#000000" class=""/><path d="M192.184 448H53.516C24.05 448 .184 424.133.184 394.668V53.332h21.332v341.336c0 17.598 14.402 32 32 32h138.668zM266.852 416c-58.801 0-106.668-47.867-106.668-106.668 0-58.797 47.867-106.664 106.668-106.664 58.8 0 106.664 47.867 106.664 106.664 0 58.8-47.864 106.668-106.664 106.668zm0-192c-47.067 0-85.336 38.266-85.336 85.332 0 47.066 38.27 85.336 85.336 85.336 47.066 0 85.332-38.27 85.332-85.336 0-47.066-38.266-85.332-85.332-85.332zm0 0" fill="#036fff" opacity="1" data-original="#000000" class=""/><path d="m342.227 369.695 87.586 87.586-15.086 15.086-87.586-87.586zm0 0" fill="#036fff" opacity="1" data-original="#000000" class=""/></g></svg>