<svg id="Layer_1" enable-background="new 0 0 68 68" height="512" viewBox="0 0 68 68" width="512" xmlns="http://www.w3.org/2000/svg"><g><g><path d="m63.5814896 36.2649384-41.2045212 22.6769828c-2.2589283 1.243206-5.0979729.4197998-6.3411808-1.8391342l-12.5565136-22.8154182c-1.2432075-2.258934-.4198017-5.0979767 1.8391283-6.3411827l41.2045212-22.676981c2.2589302-1.243206 5.0979729-.4197984 6.3411789 1.8391328l12.5565147 22.8154221c1.2432089 2.2589297.4197989 5.0979723-1.8391275 6.3411784z" fill="#febc1f"/></g><g><path d="m62.6815987 34.6298218-41.2045212 22.676979c-2.2589283 1.243206-5.0979729.4197998-6.3411798-1.8391304l-12.5565146-22.815422c-1.2432075-2.2589302-.4198017-5.0979748 1.8391283-6.3411808l41.2045212-22.676981c2.2589302-1.2432063 5.0979729-.4197984 6.3411789 1.839133l12.5565176 22.8154214c1.2432022 2.2589302.4197998 5.0979748-1.8391304 6.3411808z" fill="#ffd475"/></g><g><path d="m45.6230049 3.6340563-41.2044864 22.6770265c-2.2589364 1.2432098-3.0823236 4.0822697-1.839144 6.3411503l12.556531 22.8154602s-11.7001696-22.3759117 34.6528778-51.9958496c-1.2919114-.5804889-2.829345-.5732968-4.1657784.1622126z" fill="#febc1f"/></g><g><path d="m6.2700973 35.4500999 1.5767589 2.8649979c.3974571.722187 1.3051071.9854317 2.0272923.5879745l43.4678116-23.9225845c.722187-.3974562.9854317-1.3051062.5879745-2.0272932l-1.5767593-2.8649998c-.3974563-.722187-1.3051063-.9854326-2.0272933-.5879764l-43.4678107 23.9225874c-.7221856.3974571-.9854307 1.3051071-.587974 2.0272941z" fill="#1d2943"/></g><g><path d="m5.8331218 34.656105 1.5767584 2.8650017c.3974571.7221832 1.3051066.9854317 2.0272927.5879745l43.4678116-23.9225883c.722187-.3974562.9854317-1.3051062.5879745-2.0272923l-1.5767593-2.8649998c-.3974571-.722187-1.3051071-.9854326-2.0272903-.5879765l-43.4678136 23.9225866c-.722186.3974571-.9854311 1.3051071-.587974 2.0272941z" fill="#4c5c75"/></g><g><path d="m56.1312866 64.9452744-47.0325269.0000228c-2.5784349 0-4.6686702-2.0902367-4.6686711-4.6686707l-.0000087-26.0424384c-.000001-2.578434 2.0902333-4.6686687 4.6686683-4.6686687l47.0325279-.0000191c2.578434 0 4.6686707 2.0902328 4.6686707 4.6686687l.0000076 26.0424385c-.0000009 2.578434-2.0902338 4.6686669-4.6686678 4.6686669z" fill="#5094ff"/></g><g><path d="m9.0987463 63.0788879 47.0325241.0000191c2.5784378 0 4.6686707-2.0902367 4.6686745-4.6686707l.0000076-26.0424347c0-2.5784359-2.0902328-4.6686726-4.6686668-4.6686726l-47.032528-.000019c-2.5784345 0-4.6686697 2.0902328-4.6686707 4.6686687l-.0000085 26.0424386c-.0000009 2.578434 2.0902329 4.6686706 4.6686678 4.6686706z" fill="#57b3fe"/></g><g><path d="m9.0987663 27.6990719 47.0325203.0000744c2.5784416 0 4.6686668 2.0902576 4.6686668 4.6686363l-.0000038 26.0424805s-.538311-25.2444992-55.4289742-28.8447552c.8519402-1.1314583 2.2023293-1.866436 3.7277909-1.866436z" fill="#5094ff"/></g></g></svg>
