<?xml version="1.0" standalone="no"?>
<svg xmlns="http://www.w3.org/2000/svg" version="1.1" xmlns:xlink="http://www.w3.org/1999/xlink" width="512" height="512" x="0" y="0" viewBox="0 0 512 512" style="enable-background:new 0 0 512 512" xml:space="preserve" class=""><g><path d="m373.986 92.578-45.444-45.445-259.823 259.83h.008a45.42 45.42 0 0 1 32.125 13.303 45.429 45.429 0 0 1 13.312 32.133L373.986 92.578z" style="stroke-width:30;stroke-linecap:round;stroke-linejoin:round;stroke-miterlimit:10;" fill="none" stroke="#ff9e00" stroke-width="30" stroke-linecap="round" stroke-linejoin="round" stroke-miterlimit="10" data-original="#000000" opacity="1" class=""/><path d="m419.43 138.022-45.444-45.445L114.164 352.4a45.432 45.432 0 0 1 45.436 45.436v.008l259.83-259.822zM464.875 183.467l-45.445-45.445L159.6 397.845h.008c12.05 0 23.61 4.788 32.133 13.311a45.453 45.453 0 0 1 13.303 32.125v.008l259.831-259.822z" style="stroke-width:30;stroke-linecap:round;stroke-linejoin:round;stroke-miterlimit:10;" fill="none" stroke="#ff9e00" stroke-width="30" stroke-linecap="round" stroke-linejoin="round" stroke-miterlimit="10" data-original="#000000" opacity="1" class=""/><path d="M487.593 160.749c6.025-6.033 9.407-14.203 9.407-22.726s-3.382-16.693-9.407-22.718l-90.889-90.889a32.126 32.126 0 0 0-45.444-.001l-22.718 22.718 136.325 136.334s11.367-11.359 22.726-22.718zM32.906 418.675l18.308-80.06a65.304 65.304 0 0 1 17.504-31.651h.008a45.42 45.42 0 0 1 32.125 13.303 45.429 45.429 0 0 1 13.312 32.133 45.432 45.432 0 0 1 45.436 45.436l.008.008c12.05 0 23.61 4.788 32.133 13.311a45.453 45.453 0 0 1 13.303 32.125v.008a65.306 65.306 0 0 1-31.66 17.505l-80.052 18.3c-6.834-29.964-30.444-53.582-60.425-60.418z" style="stroke-width:30;stroke-linecap:round;stroke-linejoin:round;stroke-miterlimit:10;" fill="none" stroke="#ff9e00" stroke-width="30" stroke-linecap="round" stroke-linejoin="round" stroke-miterlimit="10" data-original="#000000" opacity="1" class=""/><path d="M32.906 418.675c29.973 6.836 53.591 30.446 60.427 60.419L15 497l17.906-78.325z" style="stroke-width:30;stroke-linecap:round;stroke-linejoin:round;stroke-miterlimit:10;" fill="none" stroke="#ff9e00" stroke-width="30" stroke-linecap="round" stroke-linejoin="round" stroke-miterlimit="10" data-original="#000000" opacity="1" class=""/></g></svg>