<svg id="Layer_1" enable-background="new 0 0 512 512" height="512" viewBox="0 0 512 512" width="512" xmlns="http://www.w3.org/2000/svg"><g><path d="m296.006 115.141c-4.423-2.734-9.945-2.981-14.594-.656l-96.358 48.178c-7.41 3.704-10.413 12.715-6.708 20.124 3.706 7.409 12.716 10.415 20.125 6.708l10.411-5.206v152.388c0 8.284 6.716 15 15 15h64.239c8.284 0 15-6.716 15-15v-208.776c-.001-5.198-2.693-10.026-7.115-12.76z" fill="#ffed90"/><path d="m256 464.096c-123.391 0-223.776-100.386-223.776-223.776 0-113.911 78.674-174.568 111.873-193.79 7.17-4.149 16.346-1.704 20.497 5.466 4.15 7.169 1.704 16.346-5.466 20.497-28.576 16.545-96.904 69.055-96.904 167.827 0 106.849 86.928 193.776 193.776 193.776s193.776-86.928 193.776-193.776c0-98.656-68.151-151.18-96.904-167.827-7.17-4.151-9.616-13.328-5.466-20.497 4.152-7.17 13.33-9.616 20.497-5.466 32.996 19.104 111.873 79.744 111.873 193.79 0 123.39-100.385 223.776-223.776 223.776z" fill="#ffbe00"/><path d="m479.776 240.319c0 123.391-100.386 223.776-223.776 223.776s-223.776-100.385-223.776-223.776h30c0 106.849 86.928 193.776 193.776 193.776s193.776-86.928 193.776-193.776z" fill="#ff8c39"/><path d="m36.62 250.926c4.207 4.207 11.107 5.914 17.314 2.81l32.119-16.06c7.41-3.705 10.413-12.715 6.708-20.125-3.704-7.41-12.714-10.413-20.124-6.708l-22.449 11.225-24.475-24.475c-5.857-5.858-15.355-5.858-21.213 0-5.858 5.857-5.858 15.355 0 21.213z" fill="#ffed90"/><g fill="#ffbe00"><path d="m64.293 305.575 26.868-23.824c6.198-5.496 6.768-14.977 1.271-21.175-5.498-6.198-14.976-6.769-21.176-1.271l-18.779 16.652-29.976-17.303c-7.175-4.142-16.349-1.684-20.49 5.492-4.142 7.175-1.683 16.348 5.492 20.49l39.338 22.708c7.707 4.448 14.838.548 17.452-1.769z"/><path d="m87.712 352.972 19.786-29.967c4.564-6.914 2.66-16.218-4.253-20.783-6.911-4.564-16.218-2.661-20.782 4.253l-13.829 20.945-33.433-8.958c-7.99-2.143-16.226 2.604-18.371 10.606-2.144 8.002 2.605 16.227 10.607 18.371l43.875 11.756c6.258 1.678 12.856-.855 16.4-6.223z"/><path d="m216.665 438.972-7.202-35.179c-1.662-8.116-9.59-13.343-17.704-11.687-8.115 1.662-13.348 9.588-11.687 17.704l5.033 24.585-29.973 17.303c-7.175 4.142-9.634 13.315-5.492 20.49 3.524 6.105 12.294 10.224 20.49 5.492l39.338-22.708c5.593-3.229 8.492-9.674 7.197-16z"/></g><path d="m41.349 193.785c1.374 2.38 6.712 9.094 16 7.196l35.18-7.203c8.116-1.662 13.348-9.588 11.687-17.704-1.662-8.116-9.589-13.346-17.704-11.687l-24.586 5.034-17.302-29.973c-4.142-7.175-13.316-9.634-20.49-5.492-7.175 4.141-9.634 13.315-5.492 20.49z" fill="#ffed90"/><path d="m60.705 139.813c1.671 6.236 7.146 10.704 13.59 11.091l35.846 2.152c8.326.491 15.379-5.852 15.872-14.074.497-8.269-5.805-15.375-14.073-15.872l-25.055-1.504-8.957-33.432c-2.145-8.002-10.371-12.752-18.371-10.606-8.002 2.144-12.751 10.369-10.607 18.371z" fill="#ffed90"/><path d="m166.588 422.026 2.151-35.845c.497-8.269-5.805-15.375-14.074-15.872-8.287-.482-15.375 5.805-15.871 14.075l-1.504 25.053-33.432 8.958c-8.002 2.144-12.751 10.369-10.607 18.371 2.223 8.296 10.668 12.673 18.371 10.606l43.875-11.756c6.258-1.678 12.856-.855 16.4-6.223z" fill="#ffbe00"/><path d="m122.604 392.691 11.354-34.071c2.619-7.859-1.629-16.354-9.488-18.973-7.858-2.619-16.354 1.629-18.973 9.488l-7.937 23.813h-34.611c-8.284 0-15 6.716-15 15s6.716 15 15 15h45.425c6.457 0 12.189-4.132 14.23-10.257z" fill="#ffbe00"/><path d="m103.632 106.921 34.07 11.354c8.114 2.705 16.444-1.902 18.973-9.488 2.619-7.859-1.629-16.354-9.488-18.973l-23.812-7.936v-34.613c0-8.284-6.716-15-15-15s-15 6.716-15 15v45.425c-.001 6.457 4.131 12.189 10.257 14.231z" fill="#ffed90"/><path d="m475.38 250.926c-4.207 4.207-11.107 5.914-17.314 2.81l-32.119-16.06c-7.41-3.705-10.413-12.715-6.708-20.125 3.704-7.41 12.714-10.413 20.124-6.708l22.449 11.225 24.475-24.475c5.857-5.858 15.355-5.858 21.213 0 5.858 5.857 5.858 15.355 0 21.213z" fill="#ffed90"/><path d="m447.707 305.575-26.868-23.824c-6.198-5.496-6.768-14.977-1.271-21.175 5.498-6.198 14.976-6.769 21.176-1.271l18.779 16.652 29.976-17.303c7.175-4.142 16.349-1.684 20.49 5.492 4.142 7.175 1.683 16.348-5.492 20.49l-39.338 22.708c-7.707 4.448-14.838.548-17.452-1.769z" fill="#ffbe00"/><path d="m424.288 352.972-19.786-29.967c-4.564-6.914-2.66-16.218 4.253-20.783 6.911-4.564 16.218-2.661 20.782 4.253l13.829 20.945 33.433-8.958c7.99-2.143 16.226 2.604 18.371 10.606 2.144 8.002-2.605 16.227-10.607 18.371l-43.875 11.756c-6.258 1.678-12.856-.855-16.4-6.223z" fill="#ffbe00"/><path d="m295.335 438.972 7.202-35.179c1.662-8.116 9.59-13.343 17.704-11.687 8.115 1.662 13.348 9.588 11.687 17.704l-5.033 24.585 29.973 17.303c7.175 4.142 9.634 13.315 5.492 20.49-3.524 6.105-12.294 10.224-20.49 5.492l-39.338-22.708c-5.593-3.229-8.492-9.674-7.197-16z" fill="#ffbe00"/><path d="m470.651 193.785c-1.374 2.38-6.712 9.094-16 7.196l-35.18-7.203c-8.116-1.662-13.348-9.588-11.687-17.704 1.662-8.116 9.589-13.346 17.704-11.687l24.586 5.034 17.302-29.973c4.142-7.175 13.316-9.634 20.49-5.492 7.175 4.141 9.634 13.315 5.492 20.49z" fill="#ffed90"/><path d="m451.295 139.813c-1.671 6.236-7.146 10.704-13.59 11.091l-35.846 2.152c-8.326.491-15.379-5.852-15.872-14.074-.497-8.269 5.805-15.375 14.073-15.872l25.055-1.504 8.957-33.432c2.145-8.002 10.371-12.752 18.371-10.606 8.002 2.144 12.751 10.369 10.607 18.371z" fill="#ffed90"/><path d="m345.412 422.026-2.151-35.845c-.497-8.269 5.805-15.375 14.074-15.872 8.287-.482 15.375 5.805 15.871 14.075l1.504 25.053 33.432 8.958c8.002 2.144 12.751 10.369 10.607 18.371-2.223 8.296-10.668 12.673-18.371 10.606l-43.875-11.756c-6.237-1.671-10.704-7.145-11.091-13.59z" fill="#ffbe00"/><path d="m389.396 392.691-11.354-34.071c-2.619-7.859 1.629-16.354 9.488-18.973 7.858-2.619 16.354 1.629 18.973 9.488l7.937 23.813h34.612c8.284 0 15 6.716 15 15s-6.716 15-15 15h-45.425c-6.458 0-12.19-4.132-14.231-10.257z" fill="#ffbe00"/><path d="m408.368 106.921-34.07 11.354c-8.114 2.705-16.444-1.902-18.973-9.488-2.619-7.859 1.629-16.354 9.488-18.973l23.812-7.936v-34.613c0-8.284 6.716-15 15-15s15 6.716 15 15v45.425c.001 6.457-4.131 12.189-10.257 14.231z" fill="#ffed90"/><path d="m26.014 240.319 10.606 10.606c4.207 4.207 11.107 5.914 17.314 2.81l26.833-13.417h-54.753z" fill="#ffbe00"/><path d="m431.233 240.319 26.833 13.417c6.208 3.104 13.108 1.397 17.314-2.81l10.606-10.606h-54.753z" fill="#ffbe00"/><path d="m296.006 115.141c-4.423-2.734-9.945-2.981-14.594-.656l-25.412 12.706v224.487h32.12c8.284 0 15-6.716 15-15v-208.777c0-5.198-2.692-10.026-7.114-12.76z" fill="#ffbe00"/></g></svg>
