<svg id="Layer_1" enable-background="new 0 0 68 68" height="512" viewBox="0 0 68 68" width="512" xmlns="http://www.w3.org/2000/svg"><g><g><path d="m54.8260231 7.6300898v53.5794945c0 2.6447296 2.1439743 4.7887077 4.7887039 4.7887077h.0000038-50.3903122c-3.1094127 0-5.6300898-2.5206795-5.6300898-5.6300926v-52.7381096c.0000003-3.1094127 2.5206772-5.6300898 5.6300898-5.6300898h39.9715157c3.1094131 0 5.6300888 2.5206771 5.6300888 5.6300898z" fill="#e5e8ef"/></g><g><g><g><path d="m64.4056702 43.5065651v17.4994698c0 2.6259727-2.0247917 4.9154053-4.6496544 4.9918823-2.7116394.0789948-4.9286156-2.0967331-4.9286156-4.7905655v-19.8120728h7.4669838c1.1660309 0 2.1112862.9452553 2.1112862 2.1112862z" fill="#cdd4df"/></g></g></g><g><g><g><path d="m16.0338173 45.2982292v14.0137711c0 .9151917-.7402 1.6553345-1.6553345 1.6553345h-4.1288681c-.9151907 0-1.6553345-.7401428-1.6553345-1.6553345v-14.0137711c0-.9151306.7401438-1.6553345 1.6553345-1.6553345h4.1288681c.9151344 0 1.6553345.7402039 1.6553345 1.6553345z" fill="#4cc66e"/></g></g><g><g><path d="m16.0338173 45.2982292v14.0137711c0 .9151917-.7402 1.6553345-1.6553345 1.6553345h-2.4428186c.9151907 0 1.6553345-.7401428 1.6553345-1.6553345v-14.0137711c0-.9151306-.7401438-1.6553345-1.6553345-1.6553345h2.4428186c.9151344 0 1.6553345.7402039 1.6553345 1.6553345z" fill="#14a142"/></g></g></g><g><g><g><path d="m27.2979507 41.0832787v18.2287216c0 .9151917-.740202 1.6553345-1.6553364 1.6553345h-4.1288681c-.9151897 0-1.6553345-.7401428-1.6553345-1.6553345v-18.2287216c0-.9151344.7401447-1.6553345 1.6553345-1.6553345h4.1288681c.9151345 0 1.6553364.7402 1.6553364 1.6553345z" fill="#5cbeff"/></g></g><g><g><path d="m27.2979507 41.0832787v18.2287216c0 .9151917-.740202 1.6553345-1.6553364 1.6553345h-2.4428177c.9151897 0 1.6553345-.7401428 1.6553345-1.6553345v-18.2287216c0-.9151344-.7401447-1.6553345-1.6553345-1.6553345h2.4428177c.9151345 0 1.6553364.7402 1.6553364 1.6553345z" fill="#079cff"/></g></g></g><g><g><g><path d="m38.5620804 48.8051147v10.5068855c0 .9151917-.7402 1.6553345-1.6553345 1.6553345h-4.1288681c-.9151897 0-1.6553326-.7401428-1.6553326-1.6553345v-10.5068855c0-.9151306.7401428-1.6553345 1.6553326-1.6553345h4.1288681c.9151344.0000001 1.6553345.7402039 1.6553345 1.6553345z" fill="#ffd80c"/></g></g><g><g><path d="m38.5620804 48.8051147v10.5068855c0 .9151917-.7402 1.6553345-1.6553345 1.6553345h-2.4428177c.9151917 0 1.6553345-.7401428 1.6553345-1.6553345v-10.5068855c0-.9151306-.7401428-1.6553345-1.6553345-1.6553345h2.4428177c.9151344.0000001 1.6553345.7402039 1.6553345 1.6553345z" fill="#ffbe00"/></g></g></g><g><g><g><path d="m49.8262138 36.0832787v23.2287216c0 .9151917-.7402 1.6553345-1.6553345 1.6553345h-4.1288681c-.9151917 0-1.6553345-.7401428-1.6553345-1.6553345v-23.2287216c0-.9151344.7401428-1.6553345 1.6553345-1.6553345h4.1288681c.9151345 0 1.6553345.7402 1.6553345 1.6553345z" fill="#c175ff"/></g></g><g><g><path d="m49.8262138 36.0832787v23.2287216c0 .9151917-.7402 1.6553345-1.6553345 1.6553345h-2.4428177c.9151878 0 1.6553345-.7401428 1.6553345-1.6553345v-23.2287216c0-.9151344-.7401466-1.6553345-1.6553345-1.6553345h2.4428177c.9151345 0 1.6553345.7402 1.6553345 1.6553345z" fill="#b244f1"/></g></g></g><g><g><g><path d="m36.3623085 8.0180063c0 .2812395-.1142921.5353832-.29776.720355-.1849709.1835032-.4391136.297761-.720356.297761h-1.7289467c-.5624809 0-1.018116-.455637-1.018116-1.018116 0-.2811656.114296-.5353823.29776-.7203541.1849709-.1834297.4391174-.2977614.720356-.2977614h1.7289467c.5624428 0 1.018116.4557104 1.018116 1.0181155z" fill="#cdd4df"/></g><g><path d="m49.8262138 8.0180063c0 .2812395-.114296.5353832-.29776.720355-.1849747.1835032-.4391174.297761-.720356.297761h-9.3988686c-.5624771 0-1.018116-.455637-1.018116-1.018116 0-.2811656.114296-.5353823.2977638-.7203541.1849709-.1834297.4391136-.2977614.7203522-.2977614h9.3988686c.5624428 0 1.018116.4557104 1.018116 1.0181155z" fill="#cdd4df"/></g></g><g><g><path d="m44.1086655 12.6710072c0 .2812395-.114296.5353832-.2977638.720355-.1849709.1835032-.4391136.297761-.7203522.297761h-9.3988686c-.5624809 0-1.018116-.455637-1.018116-1.018116 0-.2811661.114296-.5353823.29776-.7203541.1849709-.1834297.4391174-.297761.720356-.297761h9.3988686c.5624389 0 1.018116.4557104 1.018116 1.0181151z" fill="#cdd4df"/></g></g></g><g><g><path d="m47.3144951 26.1932507v3.1298828c0 .550293-.4499512 1-1 1-.5498047 0-1-.449707-1-1v-.6699219l-9.75 10.0400372c-.3498535.3500977-.8898926.4101563-1.2900391.1298828l-10.9897461-7.66992-10.670166 9.8300762c-.1899414.1801758-.4399414.2700195-.6799316.2700195-.2700195 0-.5400391-.1103516-.7299805-.3300781-.380127-.3999023-.3500977-1.0400391.0498047-1.4101563l11.2700195-10.3701152c.3400879-.3198242.8601074-.3598633 1.25-.0898438l10.9401855 7.6401348 9.2199707-9.4999981h-.75c-.5500488 0-1-.4501953-1-1 0-.550293.4499512-1 1-1h3.1298828c.5500489.0000001 1.0000001.4497071 1.0000001 1.0000001z" fill="#435e88"/></g></g><g><g><path d="m17.9460869 6.2567267c-5.1647949 0-9.3518066 4.1870122-9.3518066 9.3515625 0 2.9990234 1.4172363 5.6616211 3.6123047 7.3725586l5.739502-7.3725586v-9.3515625z" fill="#c175ff"/></g><g><path d="m12.2065849 22.9808483c1.5854492 1.2363281 3.5737305 1.9794922 5.739502 1.9794922 1.7849121 0 3.4467773-.5092773 4.8654785-1.3764648l-4.8654785-7.9755859z" fill="#4cc66e"/></g><g><path d="m17.9460869 6.2567267v9.3515625h9.3518066c0-5.1645503-4.1870117-9.3515625-9.3518066-9.3515625z" fill="#5cbeff"/></g><g><path d="m22.8115654 23.5838757c2.6870117-1.6430664 4.4863281-4.5952148 4.4863281-7.9755859h-9.3518066z" fill="#ffd80c"/></g></g></g></svg>