<svg viewBox="0 0 100 100" xmlns="http://www.w3.org/2000/svg"><g fill="#374151"><path d="m89.5 83.333h-79c-5.79 0-10.5-4.71-10.5-10.5v-45.666c0-5.79 4.71-10.5 10.5-10.5h79c5.79 0 10.5 4.71 10.5 10.5v45.667c0 5.789-4.71 10.499-10.5 10.499zm-79-61.666c-3.033 0-5.5 2.467-5.5 5.5v45.667c0 3.032 2.467 5.5 5.5 5.5h79c3.032 0 5.5-2.468 5.5-5.5v-45.667c0-3.033-2.468-5.5-5.5-5.5z"/><path d="m26.333 64.333h-10.333c-1.381 0-2.5-1.119-2.5-2.5s1.119-2.5 2.5-2.5h10.333c1.381 0 2.5 1.119 2.5 2.5s-1.119 2.5-2.5 2.5z"/><path d="m45.556 64.333h-10.334c-1.381 0-2.5-1.119-2.5-2.5s1.119-2.5 2.5-2.5h10.333c1.381 0 2.5 1.119 2.5 2.5s-1.118 2.5-2.499 2.5z"/><path d="m64.777 64.333h-10.333c-1.381 0-2.5-1.119-2.5-2.5s1.119-2.5 2.5-2.5h10.333c1.381 0 2.5 1.119 2.5 2.5s-1.119 2.5-2.5 2.5z"/><path d="m84 64.333h-10.333c-1.381 0-2.5-1.119-2.5-2.5s1.119-2.5 2.5-2.5h10.333c1.381 0 2.5 1.119 2.5 2.5s-1.119 2.5-2.5 2.5z"/></g></svg>
