<svg id="Layer_2" viewBox="0 0 850.3937 850.3937" xmlns="http://www.w3.org/2000/svg"><path d="m677.947 153.911.219-1.071" fill="#fff"/><g><path d="m700.993 234.3516h-531.5274c-27.0741 0-49.016 13.9419-49.016 31.1449v334.3304c0 7.0891 3.7314 13.6111 10.004 18.8493 8.9379 7.4751 23.0947 12.2956 39.0119 12.2956h531.5274c15.4089 0 29.1567-4.5213 38.1442-11.5867 6.8058-5.3484 10.8718-12.146 10.8718-19.5581v-334.3304c0-17.2029-21.9419-31.1449-49.016-31.1449z" fill="#4da2bf"/><path d="m202.3537 220.2479v259.2725c0 4.1747 2.1817 8.0107 5.8884 11.0905l-77.7884 95.6243c-6.2727-5.2381-10.004-11.7601-10.004-18.8492v-334.3304c0-17.2029 21.9419-31.1449 49.016-31.1449h61.7473c-15.942 0-28.8592 8.2077-28.8592 18.3372z" fill="#bee2eb"/><path d="m750.009 233.0556v334.3305c0 7.4121-4.066 14.2098-10.8718 19.5581l-77.8008-95.6321c4.2148-3.1823 6.7685-7.2939 6.7685-11.7916v-259.2726c0-10.1295-12.9172-18.3372-28.8467-18.3372h61.7349c27.074 0 49.016 13.9419 49.016 31.1449z" fill="#bee2eb"/><path d="m739.1371 586.9441c-8.9875 7.0655-22.7353 11.5868-38.1442 11.5868h-531.5273c-15.9172 0-30.0741-4.8206-39.0119-12.2957l77.7884-95.6243c-3.7066-3.0799-5.8884-6.9158-5.8884-11.0905v-259.2725c0-10.1295 12.9172-18.3372 28.8592-18.3372h408.0453c15.9296 0 28.8467 8.2077 28.8467 18.3372v259.2725c0 4.4977-2.5537 8.6093-6.7685 11.7916l77.8008 95.6321z" fill="#87c2d6"/><path d="m668.1049 220.2479v259.2725c0 4.4977-2.5537 8.6093-6.7685 11.7916-5.2934 4.0014-13.2148 6.5377-22.0783 6.5377h-408.0452c-9.3718 0-17.7023-2.8357-22.9708-7.2388-3.7066-3.0799-5.8884-6.9158-5.8884-11.0905v-259.2725c0-10.1295 12.9172-18.3372 28.8592-18.3372h408.0453c15.9296 0 28.8467 8.2077 28.8467 18.3372z" fill="#f4f4f4"/><path d="m700.9931 201.9105c27.074 0 49.0159 13.6855 49.0159 30.5718v367.918c0 7.2759-4.0662 13.9482-10.8718 19.1982-8.9874 6.9351-22.7352 11.373-38.144 11.373h-531.5261c-15.9172 0-30.074-4.7314-39.012-12.0688-6.2725-5.1421-10.004-11.5439-10.004-18.5024v-367.918c0-16.8862 21.942-30.5718 49.016-30.5718zm0-39.1606h-531.526c-20.324 0-39.9934 5.2866-55.3851 14.8867-20.8394 12.998-32.7916 32.9883-32.7916 54.8457v367.918c0 18.5947 8.6432 35.9214 24.3375 48.7871 16.2071 13.3047 39.4831 20.9448 63.8392 20.9448h531.526c23.7035 0 45.7462-6.936 62.0676-19.5303 16.8351-12.9868 26.109-30.8164 26.109-50.2017v-367.9179c0-21.8574-11.952-41.8477-32.7915-54.8457-15.3916-9.6001-35.0612-14.8867-55.3851-14.8867z" fill="#0b0f33"/><path d="m563.322 154.847.192-.936" fill="#fff"/></g><g fill="#3d6685"><path d="m447.77 314.1151c-.4434-1.9546-2.4056-3.5542-4.3606-3.5542h-37.4509c-1.9548 0-3.917 1.5996-4.3606 3.5542l-18.66 82.2578c-.4435 1.9551.7931 3.5542 2.7479 3.5542h27.3551c1.9548 0 3.9171-1.5991 4.3605-3.5542l3.2727-14.4263h8.0199l3.2726 14.4263c.4435 1.9551 2.4058 3.5542 4.3606 3.5542h27.355c1.9548 0 3.1914-1.5991 2.748-3.5542zm-17.2527 43.9106h-9.4309c-.2463 0-.4304-.2266-.3799-.4678l4.353-20.7979c.1682-.8042 1.3164-.8042 1.4849 0l4.353 20.7979c.0504.2412-.1337.4678-.3801.4678z"/><path d="m544.3491 310.3822h-53.358c-8.3792 0-15.2349 6.856-15.2349 15.2354v59.75c0 8.0078 6.552 14.5596 14.5599 14.5596h46.738c5.748 0 10.4512-4.7026 10.4512-10.4507v-10.875c0-1.8096-1.4822-3.292-3.2886-3.292h-34.6243c-2.8329 0-5.1294-2.2964-5.1294-5.1294v-32.0322c0-2.833 2.2965-5.1294 5.1294-5.1294h34.7566c1.7368 0 3.1562-1.4194 3.1562-3.1528v-16.3301c0-1.7339-1.4194-3.1533-3.1562-3.1533z"/><path d="m618.0932 333.0199c2.5946 0 4.7175-2.123 4.7175-4.7178v-13.2026c0-2.5947-2.1229-4.7178-4.7175-4.7178h-55.7059c-2.1802 0-3.9641 1.7837-3.9641 3.9644v81.438c0 2.0029 1.5107 3.6533 3.446 3.9116.4463.1362.9099.2314 1.3994.2314h54.6968c2.6649 0 4.8453-2.1802 4.8453-4.8452v-14.9263c0-2.665-2.1804-4.8452-4.8453-4.8452h-30.8373v-9.3438h25.0243c2.4437 0 4.4431-1.9995 4.4431-4.4429v-14.2061c0-2.4434-1.9994-4.4429-4.4431-4.4429h-25.0243v-9.855h30.9651z"/><path d="m383.84 349.4955v-20.0439c0-9.4146-6.9874-17.2554-16.0282-18.6484-.3474-.1533-.729-.2422-1.1315-.2422h-51.7667c-1.5518 0-2.8215 1.2695-2.8215 2.8218v82.5806c0 2.1802 1.7838 3.9639 3.964 3.9639h20.777c2.1802 0 3.9639-1.7837 3.9639-3.9639v-27.5244h25.9333c.4585 0 .8856-.124 1.2676-.3232 8.9504-1.4717 15.8422-9.2695 15.8422-18.6201zm-43.0431-16.2969h18.7158v13.3945h-18.7158z"/><path d="m284.6854 340.2064h-28.3976v-9.4922h35.0747c4.3826 0 7.9684-3.5859 7.9684-7.9683v-6.7012c0-4.3828-3.5858-7.9683-7.9684-7.9683h-47.7357c-8.8241 0-16.0438 7.2197-16.0438 16.0439v20.8623c0 9.752 7.9785 17.7305 17.7302 17.7305h32.2246v12.5972h-21.25v-1.3354c0-4.0444-3.2788-7.3232-7.3235-7.3232h-12.3252c-4.981 0-9.0562 4.0752-9.0562 9.0562v6.3994c0 .0591.0081.1162.0089.1753-.0013.0586-.0089.1152-.0089.1743v2.5586c0 8.2017 6.7104 14.9116 14.9119 14.9116h40.76c10.2356 0 18.6101-8.3745 18.6101-18.6099v-23.9312c0-9.4487-7.7307-17.1797-17.1796-17.1797z"/></g></svg>
