<svg fill="none" height="24" viewBox="0 0 24 24" width="24" xmlns="http://www.w3.org/2000/svg"><g clip-rule="evenodd" fill="rgb(0,0,0)" fill-rule="evenodd"><path d="m18.6963 18.6959c1.223-1.2229 1.8039-3.2691 1.8039-6.696s-.5809-5.47307-1.8039-6.69604c-1.223-1.22298-3.2692-1.80396-6.6961-1.80396-3.42686 0-5.47303.58098-6.696 1.80396-1.22297 1.22297-1.80396 3.26914-1.80396 6.69604s.58099 5.4731 1.80396 6.696c1.22297 1.223 3.26914 1.804 6.696 1.804 3.4269 0 5.4731-.581 6.6961-1.804zm1.0606 1.0607c-1.6677 1.6678-4.2466 2.2433-7.7567 2.2433-3.51005 0-6.08888-.5755-7.75666-2.2433s-2.2433-4.2466-2.2433-7.7567.57552-6.08893 2.2433-7.7567c1.66778-1.66778 4.24661-2.2433 7.75666-2.2433 3.5101 0 6.089.57552 7.7567 2.2433 1.6678 1.66777 2.2433 4.2466 2.2433 7.7567s-.5755 6.0889-2.2433 7.7567z"/><path d="m12.0002 16.645c-.4142 0-.75-.3358-.75-.75v-3.895c0-.4142.3358-.75.75-.75.4143 0 .75.3358.75.75v3.895c0 .4142-.3357.75-.75.75z"/><path d="m12.7545 8.5c0 .41421-.3357.75-.75.75h-.009c-.4142 0-.75-.33579-.75-.75s.3358-.75.75-.75h.009c.4143 0 .75.33579.75.75z"/></g></svg>
