<?xml version="1.0" standalone="no"?>
<svg xmlns="http://www.w3.org/2000/svg" version="1.1" xmlns:xlink="http://www.w3.org/1999/xlink" width="512" height="512" x="0" y="0" viewBox="0 0 512 512" style="enable-background:new 0 0 512 512" xml:space="preserve" class=""><g><path d="M166 295.25c8.28 0 15 6.71 15 15V452H91V310.25c0-8.29 6.72-15 15-15zM286 205.25c8.28 0 15 6.71 15 15V452h-90V220.25c0-8.29 6.72-15 15-15zM406 295.25c8.28 0 15 6.71 15 15V452h-90V310.25c0-8.29 6.72-15 15-15z" fill="#90dc56" opacity="1" data-original="#000000" class=""/><path d="M512 497c0 8.28-6.72 15-15 15H15c-8.28 0-15-6.72-15-15V15C0 6.72 6.72 0 15 0s15 6.72 15 15v180.25h123.56l90.32-123.84c5.6-8.13 18.64-8.13 24.24 0l90.32 123.84h102.35l-15.81-15.81c-5.85-5.86-5.85-15.35 0-21.21 5.86-5.86 15.36-5.86 21.22 0l41.41 41.41c5.72 5.52 5.82 15.45.14 21.05-.08.1-.18.19-.27.29l-42.41 41.41c-2.92 2.85-6.7 4.27-10.48 4.27-3.9 0-7.79-1.52-10.73-4.53-5.79-5.92-5.68-15.42.25-21.21l16.06-15.67H350.81c-4.79 0-9.3-2.29-12.12-6.17L256 105.7l-82.69 113.38a14.985 14.985 0 0 1-12.12 6.17H30V482h467c8.28 0 15 6.72 15 15z" fill="#90dc56" opacity="1" data-original="#000000" class=""/></g></svg>
