<?xml version="1.0" standalone="no"?>
<svg xmlns="http://www.w3.org/2000/svg" version="1.1" xmlns:xlink="http://www.w3.org/1999/xlink" width="512" height="512" x="0" y="0" viewBox="0 0 507.2 507.2" style="enable-background:new 0 0 512 512" xml:space="preserve"><g><circle cx="253.6" cy="253.6" r="253.6" style="" fill="#f19158" data-original="#f15249" opacity="1" class=""/><path d="M147.2 368 284 504.8c115.2-13.6 206.4-104 220.8-219.2L367.2 148l-220 220z" style="" fill="#f19158" data-original="#ad0e0e" class="" opacity="1"/><path d="M373.6 309.6c11.2 11.2 11.2 30.4 0 41.6l-22.4 22.4c-11.2 11.2-30.4 11.2-41.6 0l-176-176c-11.2-11.2-11.2-30.4 0-41.6l23.2-23.2c11.2-11.2 30.4-11.2 41.6 0l175.2 176.8z" style="" fill="#ffffff" data-original="#ffffff"/><path d="M280.8 216 216 280.8l93.6 92.8c11.2 11.2 30.4 11.2 41.6 0l23.2-23.2c11.2-11.2 11.2-30.4 0-41.6L280.8 216z" style="" fill="#d6d6d6" data-original="#d6d6d6"/><path d="M309.6 133.6c11.2-11.2 30.4-11.2 41.6 0l23.2 23.2c11.2 11.2 11.2 30.4 0 41.6L197.6 373.6c-11.2 11.2-30.4 11.2-41.6 0l-22.4-22.4c-11.2-11.2-11.2-30.4 0-41.6l176-176z" style="" fill="#ffffff" data-original="#ffffff"/></g></svg>
