<?xml version="1.0" standalone="no"?>
<svg xmlns="http://www.w3.org/2000/svg" version="1.1" width="512" height="512" viewBox="0 0 120 120"><g><path d="M120 60A59.895 59.895 0 1 1 .21 60a4 4 0 0 1 8 0 51.946 51.946 0 1 0 5.395-23.105h8.364a4 4 0 0 1 0 8H4a4 4 0 0 1-4-4V21.791a4 4 0 0 1 8 0v8.623A59.875 59.875 0 0 1 120 60zM56 79.514V63.677C46.882 62.191 40 55.727 40 48s6.882-14.19 16-15.678V28a4 4 0 0 1 8 0v4.322C73.118 33.81 80 40.273 80 48a4 4 0 0 1-8 0c0-3.406-3.394-6.387-8-7.514v15.836C73.118 57.81 80 64.273 80 72s-6.882 14.19-16 15.677V92a4 4 0 0 1-8 0v-4.323C46.882 86.191 40 79.727 40 72a4 4 0 0 1 8 0c0 3.406 3.394 6.387 8 7.514zm8-15.028v15.028c4.606-1.127 8-4.108 8-7.514s-3.394-6.387-8-7.514zm-8-8.972V40.486c-4.606 1.127-8 4.108-8 7.514s3.394 6.387 8 7.514z" fill="#d97706"/></g></svg>
