<?xml version="1.0" standalone="no"?>
<svg xmlns="http://www.w3.org/2000/svg" version="1.1" width="512" height="512" viewBox="0 0 512 512"><g fill="none" stroke="#7c3aed" stroke-width="40" stroke-linecap="round" stroke-linejoin="round" stroke-miterlimit="10"><path d="M136 332c0 22.091-17.909 40-40 40s-40-17.909-40-40v-72c0-22.091 17.909-40 40-40s40 17.909 40 40v72zM456 332c0 22.091-17.909 40-40 40s-40-17.909-40-40v-72c0-22.091 17.909-40 40-40s40 17.909 40 40v72z"/><path d="M56 260v-40c0-110.457 89.543-200 200-200s200 89.543 200 200v40M456 332v40c0 44.183-35.817 80-80 80h-80"/><circle cx="256" cy="452" r="40"/></g></svg>
