<?xml version="1.0" standalone="no"?>
<svg xmlns="http://www.w3.org/2000/svg" version="1.1" width="512" height="512" viewBox="0 0 512 512"><g><path d="M29.79 256c-16.82 0-29.84-14.73-27.81-31.43C8.85 168.09 34.2 115.85 75.06 74.99 123.41 26.64 187.7.01 256.07.01c78.59 0 151.79 35.92 199.89 96.03v-43.9c0-15.26 11.96-28.15 27.21-28.57 15.82-.43 28.79 12.26 28.79 27.99v102.6c0 20.7-16.78 37.48-37.48 37.48H372.97c-15.26 0-28.15-11.96-28.57-27.21-.43-15.82 12.26-28.79 27.99-28.79h43.43c-37.48-49.73-96.37-79.63-159.74-79.63-101.99 0-186.39 76.74-198.5 175.52C55.86 245.53 43.9 256 29.8 256zM482.2 255.94c-14.1 0-26.07 10.47-27.78 24.47-12.1 98.77-96.51 175.52-198.5 175.52-63.37 0-122.26-29.9-159.74-79.63h42.85c15.26 0 28.15-11.96 28.57-27.21.43-15.82-12.26-28.79-27.99-28.79H37.51c-20.7 0-37.48 16.78-37.48 37.48V459.8c0 15.26 11.96 28.15 27.21 28.57s28.79-12.26 28.79-27.99V415.9c48.11 60.11 121.3 96.03 199.89 96.03 68.38 0 132.66-26.63 181.01-74.98 40.86-40.86 66.21-93.11 73.08-149.58 2.03-16.7-10.99-31.43-27.81-31.43z" fill="#22c55e"/></g></svg>
