<?xml version="1.0" standalone="no"?>
<svg xmlns="http://www.w3.org/2000/svg" version="1.1" width="512" height="512" viewBox="0 0 512 512"><defs><linearGradient id="ua" x1="234.996" x2="234.996" y1="451" y2="61" gradientUnits="userSpaceOnUse"><stop stop-color="#ffc2cc" offset="0"/><stop stop-color="#f6f0dc" offset="1"/></linearGradient><linearGradient id="ub" x1="256" x2="256" y1="496" y2="16" gradientUnits="userSpaceOnUse"><stop stop-color="#fd3a84" offset="0"/><stop stop-color="#f49200" offset="1"/></linearGradient></defs><path fill="url(#ua)" d="M407 316c8.401 0 15-6.601 15-15v-18.9L347 121l-129.529 32.382C223.49 144.034 227 132.923 227 121c0-33.091-26.924-60-60-60s-60 26.909-60 60c0 22.448 12.398 42.039 30.694 52.327L107 181 2.999 376.3C9 393.699 25.499 406 45 406h272c8.401 0 15-6.601 15-15 0-41.4 33.6-75 75-75zm51.094 53.892-28.916-28.799c-5.467-6.82-14.24-10.005-22.178-10.005-9.284 0-17.894 4.554-21.094 8.804l-29.707 29.722c-12.512 11.823-11.826 31.632-.557 42.217C361.15 417.66 368.943 421 377 421c0 16.816 13.184 30 30 30s30-13.184 30-30c8.35 0 16.26-3.457 20.801-8.613 12.323-11.646 12.09-31.35.293-42.495z"/><path fill="url(#ub)" d="M328.715 165.626 422 282.1V61c0-24.853-20.147-45-45-45H45C20.147 16 0 36.147 0 61v300c0 5.4.901 10.499 2.999 15.3l122.29-150.635c6.002-7.516 17.426-7.521 23.434-.01l42.564 53.204c6.005 7.506 17.421 7.506 23.426 0l90.58-113.226c6.003-7.504 17.415-7.507 23.422-.007zM167 166c-24.901 0-45-20.101-45-45 0-24.901 20.099-45 45-45s45 20.099 45 45c0 24.899-20.099 45-45 45zm240 120c-57.9 0-105 47.1-105 105s47.1 105 105 105 105-47.1 105-105-47.1-105-105-105zm40.499 115.499c-5.396 6-15.6 6.002-20.999 0l-4.501-4.2V421c0 8.399-6.599 15-15 15s-15-6.601-15-15v-23.701l-4.501 4.2c-5.7 6-15.298 6-20.999 0-6-5.7-6-15.3 0-21l30-30c4.464-5.582 16.131-6.087 20.999 0l30 30c6.002 5.7 6.002 15.3.001 21z"/></svg>
