<svg id="Capa_1" enable-background="new 0 0 512 512" height="512" viewBox="0 0 512 512" width="512" xmlns="http://www.w3.org/2000/svg"><g><g><g><g><g><g><path d="m433.919 69.075h-355.838c-11.704 0-21.192 9.488-21.192 21.192v298.873c0 7.605 4.075 14.627 10.678 18.4l177.919 101.668c6.515 3.723 14.513 3.723 21.028 0l177.919-101.668c6.603-3.773 10.678-10.795 10.678-18.4v-298.872c0-11.704-9.488-21.193-21.192-21.193z" fill="#da251d"/></g></g><g><path d="m69.83 56.889h372.34c7.147 0 12.941-5.794 12.941-12.941v-31.007c0-7.147-5.794-12.941-12.941-12.941h-372.34c-7.147 0-12.941 5.794-12.941 12.941v31.007c0 7.147 5.794 12.941 12.941 12.941z" fill="#da251d"/></g></g></g><g><g fill="#cc231b"><path d="m444.433 407.539c6.603-3.773 10.678-10.795 10.678-18.4v-298.871c0-11.704-9.488-21.193-21.192-21.193h-355.838c-2.676 0-5.226.517-7.584 1.422l350.458 350.458z"/><path d="m69.83 56.889h372.34c7.147 0 12.941-5.794 12.941-12.941v-31.007c0-7.147-5.793-12.941-12.941-12.941h-372.34c-7.147 0-12.941 5.794-12.941 12.941v31.007c0 7.147 5.794 12.941 12.941 12.941z"/></g></g><path d="m264.668 185.341 12.742 39.215c1.22 3.755 4.72 6.298 8.668 6.298h41.233c8.829 0 12.501 11.299 5.357 16.488l-33.358 24.236c-3.195 2.321-4.531 6.435-3.311 10.19l12.742 39.215c2.728 8.397-6.883 15.38-14.026 10.19l-33.358-24.236c-3.195-2.321-7.52-2.321-10.715 0l-33.358 24.236c-7.143 5.19-16.754-1.793-14.026-10.19l12.742-39.214c1.22-3.755-.117-7.869-3.311-10.19l-33.358-24.236c-7.143-5.19-3.472-16.488 5.357-16.488h41.233c3.949 0 7.448-2.543 8.668-6.298l12.742-39.215c2.729-8.398 14.609-8.398 17.337-.001z" fill="#ff0"/></g></g></svg>
