<?xml version="1.0" encoding="utf-8"?>
<svg version="1.1" xmlns="http://www.w3.org/2000/svg" xmlns:xlink="http://www.w3.org/1999/xlink" x="0px" y="0px" viewBox="0 0 1600 432" enable-background="new 0 0 1600 432" xml:space="preserve">
<g>
	<path fill="#005992" d="M1404.987,21.186c19.59-2.85,39.67-1.91,58.98,2.42c1.33,0.34,2.7,0.66,4.08,0.97
		c33.39,8.92,63.63,29.03,84.57,56.55c12.67,16.42,21.83,35.46,27.21,55.47c5.39,20.91,6.22,42.9,3.2,64.24
		c-0.56,1.97-0.75,4-0.88,6.03l-0.48,0.73c-2.01,12.44-6.63,24.28-11.67,35.77c-28.81-14.81-59.69-25.91-91.75-30.98
		c-1.63-0.21-3.2-0.6-4.72-1.13c0.1-26.95,0.13-53.9-0.02-80.85c-30.4,0.01-60.81,0.09-91.21-0.04c-1.11,3.75-0.25,7.61-0.2,11.43
		c-0.33,20.34-0.05,40.64-0.18,60.95c-0.65,2.91,0.59,6.57-0.85,9.06c-33.3,4.83-65.56,15.98-95.35,31.56
		c-9.33-20.55-15.01-42.99-14.58-65.65c-1-38.91,14.15-77.71,40.23-106.47C1335.497,44.376,1369.167,26.146,1404.987,21.186z"/>
	<path fill="#005992" d="M15.237,213.416c16.58-0.09,33.17-0.13,49.75,0.02c0.35,1.18,0.68,2.37,1.12,3.53
		c11.44,28.78,22.6,57.66,33.99,86.45c4.07,11.11,8.89,21.94,12.82,33.09c16.26-41.04,32.1-82.26,48.55-123.23
		c13.6,0.19,27.19-0.01,40.79,0.1c-22.72,57.87-45.62,115.67-68.1,173.62c-3.89,9.17-11.66,17.04-21.44,19.62
		c-6.85,2.05-14.04,1.26-21.07,1.39C66.177,343.146,40.717,278.276,15.237,213.416z"/>
	<path fill="#005992" d="M685.567,216.736c-0.09-1.23,0.17-2.36,0.78-3.41c26.18,0.29,52.36,0.05,78.53,0.13
		c9.89,0.66,19.91,2.28,28.88,6.71c12.2,5.71,22.77,16.14,26.35,29.38c2.91,11.8,3.06,24.9-2.53,35.97
		c-3.82,7.84-10.71,13.64-18.07,18.04c10.26,3.33,20.02,9.53,25.5,19.06c3.31,5.15,4.85,11.13,6.07,17.05
		c0.66,6.7,0.76,13.47-0.01,20.16c-2.38,15.3-11.89,29.12-25.11,37.09c-13.36,8.49-29.53,10.82-45.06,11.12
		c-25.11-0.06-50.21,0.03-75.31-0.05C685.567,344.236,685.617,280.486,685.567,216.736z M731.257,289.576
		c9.55,0.01,19.1,0,28.65,0.01c4.57,0.12,9.08-1.37,12.85-3.91c6.8-4.64,10.5-13.76,7.7-21.7c-2.36-8.17-10.28-13.6-18.53-14.44
		c-10.19-0.23-20.39,0-30.59-0.11C731.147,262.806,731.307,276.186,731.257,289.576z M731.077,325.906
		c-0.04,11.28,0.08,22.57-0.06,33.85c0.1,4.08-0.01,8.15,0.17,12.23c10.57-0.02,21.15-0.03,31.72,0c4.81,0.07,9.84-0.14,14.26-2.24
		c7.7-3.46,13.12-11.48,13.48-19.92c0.91-12.06-9.51-23.72-21.68-23.89C756.337,325.866,743.707,325.926,731.077,325.906z"/>
	<path fill="#005992" d="M1151.317,213.066c4.53-0.05,9.09-0.08,13.61,0.42l0.76,0.51c10.95,2.42,20.36,10.7,24.43,21.13
		c2.87,6.82,2.68,14.35,2.37,21.59c0.02,21.47-0.07,42.93,0.04,64.39c13.51-15.38,27.45-30.39,41-45.74
		c0.89-0.93,1.73-2.37,3.3-2.04c16.43,0.04,32.87-0.13,49.31,0.1c-18.92,19.84-37.78,39.76-56.73,59.56
		c10.36,14.29,21.35,28.13,31.94,42.25c8.28,10.62,16.19,21.53,24.63,32.02c-4.9,1.63-10.03,0.03-15.02,0.55
		c-3.05,0.39-6.09-0.09-9.13-0.15c-5.63,0.38-11.29,0.48-16.91,0.08c-4.04,0.49-8.1,0.13-12.12-0.23
		c-13.46-19.9-26.77-39.9-40.29-59.75c-0.12,20.07,0.11,40.14-0.12,60.21c-10.85-0.15-21.7-0.01-32.51-0.23
		c-2.84,0.27-5.7,0.3-8.53,0.08C1151.267,342.896,1151.337,277.976,1151.317,213.066z"/>
	<path fill="#005992" d="M404.257,240.036c13.35,0,26.69-0.1,40.04,0.06c-0.05,11.07-0.02,22.14-0.02,33.22
		c7.2,0.01,14.39,0,21.59,0c-0.03,10.56,0.07,21.11-0.05,31.67c-7.19-0.02-14.37-0.02-21.55,0c0.03,16.61-0.03,33.23,0.03,49.84
		c0.33,10.67,10.96,19.24,21.49,17.57c0.19,11.67,0.03,23.34,0.08,35.01c-4.66,0-9.29,0.65-13.95,0.64
		c-10.06-0.22-20.33-2.84-28.44-8.98c-11.9-8.82-19.39-23.44-19.22-38.29c0.01-18.6,0-37.2,0-55.8c-6.42,0.03-12.85-0.09-19.28,0.08
		c-0.71-10.55-0.12-21.16-0.3-31.73c6.53-0.02,13.06,0.01,19.59-0.02C404.247,262.216,404.267,251.126,404.257,240.036z"/>
	<path fill="#005992" d="M294.937,270.356c17.05-3.25,35.44-0.19,50.16,9.16c16.09,10.09,27.91,26.91,31.84,45.5
		c1.85,9.17,2.11,18.76,0.36,27.95c-33.71,0.03-67.42-0.05-101.13,0.04c0.58,8.77,5.15,17.12,12.13,22.43
		c7.85,6.36,18.91,8.51,28.56,5.48c8.13-2.29,15.01-8.06,19.22-15.32c12.6-0.02,25.2-0.06,37.8,0.02
		c-4.7,13.8-14.41,25.61-26.06,34.2c-15.13,10.75-34.74,14.42-52.89,10.99c-15.96-2.82-30.52-11.85-40.77-24.32
		c-12.67-15.25-18.08-35.99-15.53-55.55C241.967,301.536,265.667,275.526,294.937,270.356z M276.927,325.886
		c19.33,0.07,38.65-0.03,57.97,0.05c1.68,0.09,3.34-0.19,4.92-0.77c-0.26-0.31-0.78-0.93-1.04-1.24
		c-3.09-13.75-16.68-24.58-30.85-23.96C293.137,299.446,279.067,311.236,276.927,325.886z"/>
	<path fill="#005992" d="M606.697,270.166c15.54-3.51,33.11,0.85,44.31,12.44c9.43,9.01,14.87,22.09,14.55,35.14
		c-0.04,30.09,0.01,60.18-0.03,90.27c-13.39,0-26.77,0-40.16,0c-0.03-27.1-0.02-54.2,0-81.31c0.01-7.51-4.09-15-10.64-18.77
		c-9.44-5.5-23.2-3.02-29.26,6.35c-2.66,3.95-4.09,8.7-4.09,13.46c0,26.76,0.02,53.51-0.01,80.27c-13.38,0-26.76-0.01-40.14,0
		c0.03-44.87-0.13-89.74,0.08-134.61c12.39,0.04,24.78,0.03,37.17,0.01c0.15,4.88,0.03,9.78,0.13,14.67
		C585.757,279.336,595.497,272.466,606.697,270.166z"/>
	<path fill="#005992" d="M879.697,274.846c11.91-5.47,25.49-7.31,38.43-5.23c11.55,1.96,23.07,7.83,29.15,18.23
		c0.17-4.84,0.06-9.68,0.1-14.52c13.27-0.01,26.55-0.01,39.83,0c0.08,44.66-0.15,89.33,0.11,134c-6.01,1.64-12.32-0.21-18.45,0.6
		c-7.19-0.11-14.42,0.15-21.58-0.42c0.14-4.84,0.08-9.68,0.03-14.52c-4.54,9.01-13.74,14.59-23.18,17.26
		c-12.53,3.5-26.1,2.65-38.41-1.35c-25.67-8.32-42.92-34.76-43.59-61.23l-0.52-0.72c-0.47-12.27,0.72-24.84,5.39-36.29
		C853.187,295.366,864.757,282.066,879.697,274.846z M910.107,306.846c-6.88,0.73-13.4,3.99-18.07,9.09
		c-13.14,13.45-12.91,37.8,1.32,50.41c12.49,12.17,35.21,10.67,45.83-3.23c7.37-8.79,8.93-21.09,6.59-32.03
		c-2.06-8.39-7.61-15.78-14.93-20.31C924.637,307.246,917.167,305.836,910.107,306.846z"/>
	<path fill="#005992" d="M1070.077,270.786c12.65-3.65,26.73-1.67,38.07,4.95c14.16,8.5,23.28,24.6,23.33,41.11
		c0.1,30.39,0.04,60.78,0.04,91.17c-13.4,0-26.79,0-40.18,0c-0.03-26.74,0-53.48-0.01-80.22c0.01-6.41-2.42-12.9-7.25-17.22
		c-9.26-8.79-26.53-6.9-33.11,4.23c-2.23,3.54-3.68,7.68-3.61,11.91c0.01,27.1,0.02,54.2,0,81.3c-13.38,0-26.76-0.01-40.14,0
		c0.02-44.87-0.11-89.74,0.07-134.61c12.39,0.04,24.79,0.02,37.18,0.01c0.14,4.84,0,9.69,0.14,14.53
		C1051.147,279.866,1059.937,273.456,1070.077,270.786z"/>
	<path fill="#005992" d="M184.727,298.746c4.47-16.34,21.75-27.4,38.46-25.42c0.01,44.9,0.01,89.79,0,134.68
		c-13.22,0.01-26.44,0.01-39.66,0c-0.03-28.41,0.09-56.83-0.16-85.24C183.557,314.756,182.637,306.596,184.727,298.746z"/>
	<path fill="#005992" d="M492.837,282.766c7.51-7.15,18.15-10.35,28.39-9.44c0.01,44.9,0.01,89.79,0,134.69
		c-13.22,0-26.44,0-39.66,0c-0.02-33.4,0.01-66.8-0.02-100.2C481.727,298.386,485.787,289.076,492.837,282.766z"/>
	<path fill="#D71049" d="M1364.837,236.656c45.61-10.55,93.74-9.24,138.82,3.25c19.04,5.28,37.36,12.87,54.98,21.75
		c-0.11,0.71-0.19,1.42-0.26,2.14c-10.27,14.57-22.54,27.82-36.91,38.42c-29.73,22.34-67.61,33.24-104.65,30.68
		c-35.51-2.57-70.16-17.43-96.04-41.98c-8.43-7.65-15.72-16.46-22.3-25.72c-0.87-1.02-1.23-2.28-1.53-3.54
		C1318.457,250.636,1341.207,241.886,1364.837,236.656z"/>
</g>
</svg>
